<mxfile host="app.diagrams.net" modified="2023-09-10T10:54:27.200Z" agent="Mozilla/5.0 (Windows NT 10.0; Win64; x64) AppleWebKit/537.36 (KHTML, like Gecko) Chrome/116.0.0.0 Safari/537.36" etag="pwf8WpEPT6yPZC0AbD9A" version="21.7.4" type="github">
  <diagram name="Page-1" id="11sEy78v7_TYVQDsHQMA">
    <mxGraphModel dx="875" dy="478" grid="1" gridSize="10" guides="1" tooltips="1" connect="1" arrows="1" fold="1" page="1" pageScale="1" pageWidth="583" pageHeight="827" math="0" shadow="0">
      <root>
        <mxCell id="0" />
        <mxCell id="1" parent="0" />
        <mxCell id="HG4EHklCZ0Gkf6-ZcI-4-1" value="" style="shape=image;verticalLabelPosition=bottom;labelBackgroundColor=default;verticalAlign=top;aspect=fixed;imageAspect=0;image=data:image/png,iVBORw0KGgoAAAANSUhEUgAABIUAAAFxCAYAAADtdxgFAAAgAElEQVR4AeydTZLzKs+Gs64sKOt4lpBZr6KnGX/Vi+hJVnCqh+8C/JUAYYHFvx3byf1UnRPb/IkLIUDG9OW///6b6B//mhv8DwRAAARAAARAAARAAARAAARAAARAAARA4K0JXKh27BDi37euMSoHAiAAAiAAAiAAAiAAAiAAAiAAAiAAAiAwXdgRxL9gAgIgAAIgAAIgAAIgAAIgAAIgAAIgAAIg8P4EsFPo/dsYNQQBEAABEAABEAABEAABEAABEAABEACBBQHsFFogwQMQAAEQAAEQAAEQAAEQAAEQAAEQAAEQeH8C2Cn0/m2MGoIACIAACIAACIAACIAACIAACIAACIDAggB2Ci2Q4AEIgAAIgAAIgAAIgAAIgAAIgAAIgAAIvD8B7BR6/zZGDUEABEAABEAABEAABEAABEAABEAABEBgQQA7hRZI8AAEQAAEQAAEQAAEQAAEQAAEQAAEQAAE3p8Adgq9fxujhiAAAiAAAiAAAiAAAiAAAiAAAiAAAiCwIICdQgskeAACIAACIAACIAACIAACIAACIAACIAAC708AO4Xev41RQxAAARAAARAAARAAARAAARAAARAAARBYEMBOoQUSPAABEAABEAABEAABEAABEAABEAABEACB9yeAnULv38ao4UEI/D2n6fs6Tf8u839f12n6fdYJ+HOb01EeX7dp+qtLOvWk/RZySpnl9U+l7JVi7hDtOU2Xi/vvOk2nr49DeL/O9bo9duCKIkEABLoJbNF/H7fZJlzv3aJ9asKeMfRTWaHeIAACIAAC5yOw/U6h5zTdxPqE1l/X6zQ96PllmrBeOZ/SHELi6+uV51c4Zb54Tv0QjppbmszfXcRTnC0+v0QWOQfNbyINP+5Nm0vHjqGUU2iEFcv90t/nfZouOzqFttLnrfJ9aeOsU9iwTj4n41z9Ev2XnLo/j2n6IWdv1P/NMxHX9BnnyP3V7AE5iCeXV5QudgDLunBf/He1TuKafuvTuHKoXDVPKcd1mr7v00TO7dK/agf4Y5okTykXcTX/nuk4Mr65rmkDqlPkUJd197a40raXWAyFb9F/aeL1YU6h0fbN9anc+Dta7pDuIDEIgAAIgAAINBAY3inEL5/u2kTxYV9MkeNHBj/u00RzHXIQwSnU0FqIOhPYYrI8565eScfOt7Jg8YuJOLVYXOQWdz7PKL2cWPpdRbTriBds0UJIJh9Jy/kn6yULiq67WUX5vOwWTqGXod6roBGd/BN9eOGI4H54sU4drt/bOYVEPVO2iuoubY7GKrCBazuFLtMkZVPbQHEKjegGt/cmv1uMcx/oFBppX6nPreNvV7lPOz++3sJ58yb6hUxBAARAAARAwBHo3in0fJQHruxOIOEwQmuAQDOBLSbLJSHEwtDvkBFvsVPOEz+pdG/y42L8wkVz7ogy5WLH5CHCvDwycxHenHaanU6pesmiFteibC9bBatFPq96AKfQq0jvV06vTgq9pd04fmFIDpBox0+8a6C678e2Qci66LtMMBFHc+Z6GyPKkQtWL7eo66Lc6PNX369ZnsghFDh/orBgV1WuTJG3uRR19uWL9OyE8vXh9Fo6DqNfLVzk22UDZf6911uMcx/oFOpuX6EXi/4gwrwuxu2sxanUK37hihenMVTcgwAIgAAIbEHgMp+ncZn++++/YhnkDKLPwcxbDLn9J07pnD68oSIOpvus00hLgGcgwAS2mCxz3qlfMZmTiw5ehC0mjS4fvyDTnD5ysSQWbCxC9aJSyXskLZXP9epaEHWy4nq//BdOoZcjf3mBnTrp+1G0E4jlz4X7MKVvU3pvG+JwsZhM2RW50JVxtH6rldPsFHIV1vKiIJlfymak4mgyM1/5K9P7hbhoV3YKLcoXPH06mbHIo8W2yyw2ud5inPtEp1Bn+1b3X2X8NfrQWa7Xpec03ekoqOs03XOTaZ8AFyAAAiAAAiDQR+Dyv//9b6L/jHMol0fr4FThFMoVR2FmMOQzYN0vOaPoPKLUP7O2E2n8p/Msv8jHZ+Nk9efNujhyDJbnPvp4ykTgZTKnANQ851dQ5oAndzgOCU4TUF+5a923feZbwPjQqEIjxTD520P2OLIM8SuyOB3Hi399o9fAaIjDE7xoAceLJHWxkVv4uaI5PZ8JIiXyYYquUbzcpHUkLeXtF2o3e5YKL7hITrkIlfL6605WPv3Ihfw+lXSDDjG73Z1BSYCUTiHqH7IvJI2ONBzKeUS0+PK6qYSvpc+x0eFD24hhaVHZ0n+D+mS+/Y3jcf/2z+lQOdpqGtsNd9jcSNvn0nbqZK6PmeLcJ1C0Myb+V0rr+2hkU1IOnyB/4eiQ/dH3Wz73LGGDpIPFO0KYUfQZVku5wS6gIKG98UyEk81zEAz9MxFPS0vfpmvnEgX2WLAKnrN8nEfUDiyDmobTjv5291/lwEayN2Tr/ORGEY76IY+Rsa0k70M87posBm2dF0ORmb+TCiZvQhF82oGLzvbl9k/ptNfHSG+8pJ3l+vTugqdGxZexcULcgwAIgAAIgEAlgcAplNopxPMGmmtU/+PvolvSiMzN+iFeIzynif0Z6rxFpKdLnvvwp26UhudKZj0WzzvcvIfjRNmZW1N+nM5F3EVmTcjaZwzI/MaOHJ68ZT5s91vGogIl8CgovHXAadFowMoGdwqUaujSYjco6Dndr7QpruG/693riszKLLiiCSBPDP3CSiaga7EgyX1SIRd2nIW2wOMw+lUXdi7CSFrKgtN7Z5A4U4SeaYtgKVsXK5lBz7XaCakN6CBpctIkOi87hTS9YqMjvcRSNk6bMhylcMpLK1eWoV67b3jjRSD3P1r45fLt6b85AxjI6P6qW8xMLvziFQ5zZieSz2/f/iv7mOm/qXb28s4XbBs0hy/F8ovOyKZIm6HZBVOCsCsyDuepPQvk4PN8ZNm8iM05haRt4O6UkGUmIa6UuCyzl0/IQbaG66LyFHHpIGzvIJL1EmWmHDyvt1cj/deNnXEfevK4TWOpYC4v/bhPTlk55k7T5G1HYtwv2bJseKK+PPbftcP+9+37PAYudp45ntI2pMb/NfWqay4u2x7XIAACIAACIJAgEDiF4jg0P/DrhoaJMOcj5xe53T0cn39Vhw0H0q/wJcjH8bVZH9I6MJr3cDytSpQm5YcgLwGtsRZrFtrVRPMrniBzAfJ3Q5llMU3XDIjfGmqJqWJaeOq5zyMDy8dxUMxuDm0SqrWQS5xb7Pr8178wi5eonc3EUC5AlGLl5FFzsqQmnSOT0pG0VAVOLxdl9Fyeo5KSm+L1slLwVT5y+pRaDOUcGuys0HSdSs918OxCiBZa2mInqlKPPqeMkcna9T+zc0AB0tt/a+pC5afimedip0KEIcs5jttx36uTsi9w/zV/eYz+GldGDu/EiByqnIf/je2HcGKwQ2RRTE0cl2jhdFlk5h5IB4uiNpzM5+dsobRvqcUxp6Vf5sn2Q3Ki9DI/w8iVE5dr8oxklmk9O8Eq5RTq1Q1Zr6br7v5beGFCQrCjRRtCedzPTVgojmYLU/2aK54Lz9k4tgs0WdNk5vwHfnvaN9bTuHipaym97yk3Lie4513v+KQswIIbEAABEACBMQKBU0juFOIX69q8oKlI2gRCL6zFlwL0civpJKp0nuTWdyyfmfs0zjF4TsN5yN9kmTvLLGVsuq4CpL3xLyy+WYgkMB/B7t7oUbLcBJOzP9CvXPT4haBYKKZ23YxMSkfSEjozmY0O1mWksj6pyTDHfekvL2bojXnLP+74qWS58FwYyVAKpzit+lzsW1yu5uUe6b9uQSodBkaWyFuecjqVWJTCW9p0zbjRIctxH453AHLRsp/EaYL7szqFnNw1i2NmQr+xbYrTG9sj7COxIjsTpzN5Rk4hmT+nkzuvUk4hKd/m1yP916StmNiQLdTecFWN+wkbUeqfqfAamY3jvaJemzfOXICqb3Nw4Lx89ThoUDvfXWrYEqLiEgRAAARAAASyBMxB06kzhUZ3CqklSyeRssM5NadY5JWYs8h4vD6Uz4rXmQ0uqTnW7jIXK5WIUAsornjNhNYUWWokF65tvUqI7B+3LqJ9wh0uxFtq+jzC//Wip/h8hD7HUj61HJmUjqQtUhJ1OsQiSwpM+kn6YT4Xo1kznZOh7UQTiUqdOBeeC6MiSuEUp1Wf4z4pqhJcavmO9t+4bCqDGEvnbhyHhSqxKIVzPjv9/lGfvU0T7RIKnDrkwIgdO4Uzv6gK3vkRpxX9y+92ietcE8elSZYT56k4WOIodO/zW2mnUOC04c/a6LOx28xZfhoW2EpNZsHGnAcj7g9hr1L9I4at9d+UwzVOm+rnVLbsq3E6vtfKLvXPVHiNzEZeOIUYf/IXO4WSaBAAAiAAAiDQTyC5U0hmudV3zObFUPQpjpkXiPUcr+tSvzl/Qu3cR9aVrrW5VGqu4+PvLHNch6r7WkDxBFYDpBZ4FKfQeucSqNUsPPQLKHFgqkzCzhttUenTRv2E0/udCPGiUlm4cRr+zaXlOMnfoy2ykoK6AP6WNWUwch2cssiF58JKaVlubQHGYdpv3Ce1OPRMy3e0/1J6XlRy3c3WUl7QabsLnYAcP/VqWw3ft/+m0NJzchJ9CwdR7MAp9THfv+P+qzk6YkEa+mCynDjPmnI12yJkiRnERUgHkI8r0kuHm9wdRPaRzwvy6SjzhMyefeRcOr1TiPp+akK0eM59UrRC77hvWBc+hVX7rzjgUYixuFTT7tv3fb/pGH8X9VvhwVZz8RVEQxYgAAIgAAInJxA4hbJ12eDtBM8BZLn8LLVmkHFL17Vzn0U+ym6h3IuuQ8i8qETFg1pAFE9uQx9dVHrRPmOnkHf6lCaWitPIL2ziRaNjmJu0jqT1TZS6EIu4QyyyUnLK56ajXvQDWEudOBeeC6PyS+EUR3PeSNnj67hPxuF8r+U72n9lfaRhpLLI6SbDWQ7+zYVRnFI45/PCX+P0oR1+mTK5jwc7WEZ2CiUcHYEIDX3Q24mEHfH51pSb+IyLGaT+UhOX4e2StHeiXL8Dy9lLGZ/DApsj0qacRZyOfoO0LNSrf0f6r+xzPXL3jvtUVql/psJrZDZ2SXFi9dRxpTRe9xL9xverxNi+khj2/G/ajEkbXteYHK8lGPIBARAAARB4GwKBU0ieKZSqIX9Sljq8mdPVzAF4/sBpzK/ikAnCG25q5z5aloH8zneRHIsPIrNWj+wzAlQ82FF761/aAeRKLS4+P8MpVJo4ZieeYuEXLHgIcS6sFF5Km1WcafIyy4VdIc0hgjUnCQnGxijVyXPhubCavClOSq4UtGLf4jpFDl2T32j/dQaPDoZjRxDlyzIFxjOqwBqsoiw3vU05HGShIs5qTiFtN44ss8LhJKN7G5RY3Pq4oi4Le+Miyb4vHSzyXKCYA+efi+OdSu4sIV++sFXs3AkcdBmZZXmcVsrMcr38l/tKrmDTV5T+W+pDuTwprGrcT9iIUtmpcFPfgsOnSq5S5VYOF7rn9ZGLyIVxnNFf8cfk7vIct9F8kR4EQAAEQAAEIgKBUygKy97y1xjmzYUSs2Z8T60dauYPtCCmndLJA6srdywrottHLn9aI6bklGkPIbMUqObaNFLhfIFU5VPPfbnRgtE/lxcOcuqTHhk1vibZ5e6lOPxA93JhQosl+deKav6Sl1yEyfOI/CIq85ayKy0vsuT5R8zzWf/XxzjJy35JJ/izJrXQjL6lFjOcTy48F0bpqa+UnK89+iwdMiyn/3X9j4yk1k9G+69hHf/JRcc3VSbJVmJVCvf1e9GFWPiRUyE+UPrvEX4+FjscfP9LOGOyzhpRtimXHZbuXCN2ciwWqwqabDkyPvd98WfgfXBUrub48fVVWMkwbTeRl9E5hSRLb+tcWK1TiGTP5evrtsfFSP8t2jrhpGW94TpSWvOZWWbgSOVf6p85W5dzfJt8a15ScSVe9yv1tnX8HZHSzCkT5nskX6QFARAAARAAAY2AOWiav0+v2SkUZ8IDV7yu9/MO92cz5byEtr/m5g5UBjtZ6O3IIu3NzmluysG8Ur7UvEbGyV1TejqfNjt3ExkcQWYhTvmSAZkFYvwn4dwrKvL6pf7dEvuZ2WOoLUaDvDKL9CCecuMVT7w+I8Xyf+qu8FZSyXLLR/HChBd0/jexaGSZ4kWRT1exU6c5rVgYynIW1wWZWfaX/bLR0fbYk25QR045jUqLnVK4MRZCF6nS3A/Mn14s6GOXPj/cDqN7ZCTdc6prbiE20n9Z3riPcxtEKLwOlDiWwn1GL7qo7QuRE4WcRXz+TdBvbtYpLJ3BMjx2tCTziXfTaDii845kOcGB9y6tXPwGcV1Z8lkspyy+lE/sWOO0QbrItqTCgudSTvm5X9SG0tnEZe/zu1L/jd+Mye3c8cSMKsrjPvX/eMu3t1m5cV/xVPh0OQc41zcyDmxL7oXzivZpJFNq8xg6Iiub78LfRhgpAmlBAARAAARAICZwYUcQ/8YReu/5RbSfn/DLKfcyqGYrbCotOYOko0jKyGsS8yJMlimvM/MdmZdZn1C6yviUdm+ZpfzFa54cUkQ+wdCDo7/YFE3etAy9E0YApkV5PFH1acVuAl+WSMvPqsuO0lLZNcrl5XndRbyrgBZZdKjqTwVmkpL+6lGwMHMLzJoaNKd1O4Lkoa9cdovMNbKtFof0mfSGOyE5RFifyDGj6oWmj7LDl8JZet7nL8t0B0B4Q5JxSlE2iz5I8Sv0+e685LKu3P8kA03Pmvuvqy/XKc4z6dSp4Bgb75QDj5G/6JfPFPJ/eSxyPgS7eJxMSWdOo1PIZMd/8UyUS2X6XQspDhs4harKVQ7gZluXk1k6eBZOJ7FrSu4ykmnYPplf6RSSn9od5Uwh2War99+ErWPnC9kJ7lsLm5NIK+Wl2ZdxKPXYulTail2EgQyvv2keQwdETM1vB7JEUhAAARAAARDIErhQKDuE+DebAoHvQ0A6hd6nVqgJCIAACIAACIDAmQgkHcpnqgRkBQEQAAEQAIFzEthsp9A5cXyY1HAKfViDo7ogAAIgAAIgcEACZidT4TPbA4oNkUAABEAABEDgHQhgp9A7tGJvHeAU6iWHdCAAAiAAAiAAAmsR4DMH1soP+YAACIAACIAACFQTwE6halRvGBFOoTdsVFQJBEAABEAABM5CoOIvj5ylKpATBEAABEAABE5KADuFTtpwQ2LLAyf5cFrzKw/YHSoBiUEABEAABEAABEBAENAOnKc/EJD56yEiNS5BAARAAARAAAS2IYCdQttwRa4gAAIgAAIgAAIgAAIgAAIgAAIgAAIgcGgC2Cl06OaBcCAAAiAAAiAAAiAAAiAAAiAAAiAAAiCwDQHsFNqGK3IFARAAARAAARAAARAAARAAARAAARAAgUMTwE6hQzcPhAMBEAABEAABEAABEAABEAABEAABEACBbQhgp9A2XJErCIAACIAACIAACIAACIAACIAACIAACByaAHYKHbp5IBwIgAAIgAAIgAAIgAAIgAAIgAAIgAAIbEMAO4W24YpcQQAEQAAEQAAEQAAEQAAEQAAEQAAEQODQBLBT6NDNA+FAAARAAARAAARAAARAAARAAARAAARAYBsC2Cm0DVfkCgIgAAIgAAIgAAIgAAIgAAIgAAIgAAKHJoCdQoduHggHAiAAAiAAAiAAAiAAAiAAAiAAAiAAAtsQwE6hbbgiVxAAARAAARAAARAAARAAARAAARAAARA4NAHsFDp080A4EAABEAABEAABEAABEAABEAABEAABENiGAHYKbcMVuYIACIAACIAACIAACIAACIAACIAACIDAoQlgp9ChmwfCgQAIgAAIgAAIgAAIgAAIgAAIgAAIgMA2BLBTaBuuyBUEQAAEQAAEQAAEQAAEQAAEQAAEQAAEDk0AO4UO3TwQDgRAAARAAARAAARAAARAAARAAARAAAS2IYCdQttwRa4gAAIgAAIgAAIgAAIgAAIgAAIgAAIgcGgC2Cl06OaBcCAAAiAAAiAAAiAAAiAAAiAAAiAAAiCwDQHsFNqGK3IFARAAARAAARAAARAAARAAARAAARAAgUMTwE6hQzcPhAMBEAABEAABEAABEAABEAABEAABEACBbQhgp9A2XJErCIAACIAACIAACIAACIAACIAACIAACByaAHYKHbp5IBwIgAAIgAAIgAAIgAAIgAAIgAAIgAAIbEMAO4W24YpcQQAEQAAEQAAEQAAEQAAEQAAEQAAEQODQBLBT6NDNA+FAAARAAARAAARAAARAAARAAARAAARAYBsC2Cm0DVfkCgIgAAIgAAIgAAIgAAIgAAIgAAIgAAKHJoCdQoduHggHAiAAAiAAAiAAAiAAAiAAAiAAAiAAAtsQwE6hbbgiVxAAARAAARAAARAAARAAARAAARAAARA4NAHsFDp080A4EAABEAABEAABEAABEAABEAABEAABENiGAHYKbcMVuYIACIAACIAACIAACIAACIAACIAACIDAoQlgp9ChmwfCgQAIgAAIgAAIgAAIgAAIgAAIgAAIgMA2BLBTaBuuyBUEQAAEQAAEQAAEQAAEQAAEQAAEQAAEDk0AO4UO3TwQDgRAAARAAARAAARAAARAAARAAARAAAS2IYCdQttwRa4gAAIgAAIgAAIgAAIgAAIgAAIgAAIgcGgC2Cl06OaBcCAAAiAAAiAAAiAAAiAAAiAAAiAAAiCwDQHsFNqGK3IFARAAARAAARAAARAAARAAARAAARAAgUMTwE6hQzcPhAMBEAABEAABEAABEAABEAABEAABEACBbQhgp9A2XJErCIAACIAACIAACIAACIAACIAACIAACByaAHYKHbp5IBwIgAAIgAAIgAAIgAAIgAAIgAAIgAAIbEMAO4W24YpcQQAEQAAEQAAEQAAEQAAEQAAEQAAEQODQBLBT6NDNA+FAAARAAARAAARAAARAAARAAARAAARAYBsC2Cm0DVfkCgIgAAIgAAIgAAIgAAIgAAIgAAIgAAKHJoCdQoduHggHAiAAAiAAAiAAAiAAAiAAAiAAAiAAAtsQwE6hbbgiVxAAARAAARAAARAAARAAARAAARAAARA4NAHsFDp080A4EAABEAABEAABEAABEAABEAABEAABENiGAHYKbcMVuYIACIAACIAACIAACIAACIAACIAACIDAoQlgp9ChmwfCgQAIgAAIgAAIgAAIgAAIgAAIgAAIgMA2BLBTaBuuyBUEQAAEQAAEQAAEQAAEQAAEQAAEQAAEDk0AO4UO3TwQDgRAAARAAARAAARAAARAAARAAARAAAS2IYCdQttwRa4gAAIgAAIgAAIgAAIgAAIgAAIgAAIgcGgC2Cl06OaBcCAAAiAAAiAAAiAAAiAAAiAAAiAAAiCwDQHsFNqGK3IFARAAARAAARAAARAAARAAARAAARAAgUMTwE6hQzcPhAMBEAABEAABEAABEAABEAABEAABEACBbQhgp9A2XJErCIAACIAACIAACIAACIAACIAACIAACByaAHYKHbp5IBwIgAAIgAAIgAAIgAAIgAAIgAAIgAAIbEMAO4W24YpcQQAEQAAEQAAEQAAEQAAEQAAEQAAEQODQBLBT6NDNA+FAAARAAARAAARAAARAAARAAARAAARAYBsC2Cm0DVfkCgIgAAIgAAIgAAIgAAIgAAIgAAIgAAKHJoCdQoduHggHAiAAAiAAAiAAAiAAAiAAAiAAAiAAAtsQwE6hbbgiVxAAARAAARAAARAAARAAARAAARAAARA4NAHsFDp080A4EAABEAABEAABEAABEAABEAABEAABENiGAHYKbcMVuYIACIAACIAACIAACIAACIAACIAACIDAoQlgp9ChmwfCgQAIgAAIgAAIgAAIgAAIgAAIgAAIgMA2BLBTaBuuyBUEQAAEQAAEQAAEQAAEQAAEQAAEQAAEDk0AO4UO3TwQDgRAAARAAARAAARAAARAAARAAARAAAS2IYCdQttwRa4gAAIgAAIgAAIgAAIgAAIgAAIgAAIgcGgC2Cl06OaBcCAAAiAAAiAAAiAAAiAAAiAAAiAAAiCwDQHsFNqGK3IFARAAARAAARAAARAAARAAARAAARAAgUMTwE6hQzcPhAMBEAABEAABEAABEAABEAABEAABEACBbQhgp9A2XJErCIAACJyGwOP7Ml3+Xaf732lEhqAgkCQAfU6iQQAIgAAIgAAIgAAILAi8/U6h5891uvy7TNef56LyeAAC70ngOd3+0SIfC/33bN/1a4VF9PpMkeN6BHgcNzbt+1HM+ND6/HtztvkyXb7uxbqkIty/2MbzL5y6KVZ4DgIgAAIgAAIgkCdw8p1CZUePn0xWTCTzqA4e+veYbl/WAWadAZfp+nWb7r/Pafq7T1fsAlilAc1EfAdd6ioX7b5Km78ik672XVGwQy+iV6znXlnt1b57lbsV59r6nEGfjYwDTqGA8clsvZ+X+ZcX7NgSv1/3ybYjP7tNyRmfqT/Hcy8BpfNNfUHyEC9PbNo1Xh4OyTw9J6PjOS7/rtPtp+wYDfQDNyBwAAK19vsAokIEEPhIAifdKfScHt/kACm/GfOTjx0W8q/SKK7j9fs+PeXnH392gnH9usIptFJj7DWodZV7soXCSk10ymy62veUNf1Mofdq373K3aqV36k+n+wU0vTD8FDmaXZ+Y1943X61lJN1HqnzHDcHyu0UN+PkbVrTzTImM9XROqy0+j5/6SXfZboorHQ6eAoCxyDwTvY7SdQ5qK/fj7QTO5kYASCwL4HT7RR6/t7MgFjb4bzDJDcp2LcNxko3b8PyzjH75iofZ0yIz0m916DWVS6cQqdRzK72PU3tIOhe7btXuVu1+DvVB06hUEvyTqHbdKejANSdVc6B8pPYEZ0dB9POl1C6tjs77xyQOeMUMpK4hafmNGqTFLFB4HUE3sl+56nNGxdu9LUG/oHASQicZqcQvdqt+MEAACAASURBVB25fV2mxW6YAuj3dgpVvAUjPtlJUQEgggMCew1qXeWi3YO2O/JNV/seuUKQLSCwV/vuVW5Q+RVv3qk+cAqFilFyCj2Mo0R5uUUvxr5ol3TCKUTFmJdny91AVOYan4yFNZkmdgr1y1x2VlFf2EL2uC64B4G1CLyT/a5iQl9r0FctfJRHVSJEAoH9CBx/p9Bop3Lflb/l4FmxS6hGtazDLXEeUZSBmbjx9/m/dI4Rf8d/naxH3BlB90087ejifyNpOQ/7G5bhz1D6vk8P+fmcSLQsmz6pY9npwE+WXyRyl+xY5HKSv+pbzGV+tU+GyxWTZLPDzrcV1dedN5UVpp2zzM5scw/KvBqn7uOHDlpdTtDntGPlzvm0XrWXu6dexfrhbdzfw05ERB/U3lWZCZrsAxWf485E21nNaaepXzdkLu3XLbaOP+Gw/X25GJ3bnuzIMjxun9PYDYe1jVV7W6RSkH2IbbM5G2+a7HkrYkyReYzp84hOPqfHD720Wo6hqfGI5Db648YMy1qMR//IVjZ8fiBsvWSSvh7rv+l8+0MMD6VtbT+y44UWxztHCgxMPiJ/c/913+QTj3GZR51CI+3brs+zLbxOdzMvrJ9fSY3Zc1y4Vs9VbNt0jQtuPWLSct8neyfLTvX9kbQS8mRtnWav2M5G0c2t1enZRtXON+J0rxoHtTrs9Yzte+umhr3kRbmfS+DQO4Xs5HDwUD1nSN9xm+0akxpzNtPXbelMMQdX086s2anju4mZfNnBgcOt4b/awY0mWuSccfEC9iNpjQBuQDYyi6Xun9yu6SUNL0TZ5BR5/M3p/WeJhc8M93rT0VWuqa9rk2iBwfUN2iagNcCZFzy0UI62zppJn3FEpJxCY+UGVWi6GSh3d72ystMkzbardXBa7XYHl2r9WPJxulL3J+kHWA3phhS4/brL1lExJTal8IIzo70m9Sm67IZpI/t2c+HUyI0L9WIlYtqXDPHE+enKpN0g5iVESZcp94o2kULYRW2PvbKOKpKZbJ0YUYrnHpoyzWHK7nxEYSvnOitjsxScr5vqO9Z/uci1fzWHD5Vh5xZuvIjrKe/ltSqc2Flt4qbGIDVx08NxmW0bJcfn7Lx2rH2Nk61Dn3m+Zx0e7fOrkT7Y1DhR5O5yS/qWCZ/7vvaCjueyet8fSUtV7x4HPTerXz3zjd7xyBd98otV1rQnZwDxj03gkDuFVvWqZgfPYzdOSToeHErxUuFlp5KYRMlMzGAXH3TIE5HwzZuRUU7iR9LyX+aQ+Um56Nq09/KtvYnGZZPTKk4XTz6VcHq016DWVW53fSscCTnOpfMQTFptQj5abqLRio8Hy+3mPAvW1b4+uet75GzTHLyTXKz6ROGFqUOi3wQxB1l160YgRPNNt62jkkpsSuEnsxtDrJpbZk5AfcC/fZ4fuyund6TjOfvP6SrahKPyjrD8AlyzV3MOqatcvzZjY9ZBPu8m0saroMzq+o7236DUVW8WcwWXe+BgcX2J9SRIU8VgtpXJ9l6hVuMyWzmXMrLjP/HCbnSOVKh7Tp+9U6hrfpWqrxMoOWcoCFwMHii3pG+ZcN/3E6xI7JQdHkmbynPGZO0D96/5ubya+1DrfCOrP7KId74e/frlndmgbrsTONhOIdq2ardg541SAzdjmC/TcnBtyOOgUc3g0P3JUmEw5Dprg7E62Nn84nYLJm2U50jarCOCBXYTaW3hoJY9p9NlE+EnW9wV65PiMcqZd4PQhEfsxgpJKncrlKvkWn40Wm6KI5dcCh/WKzdJy0wwWZTkb4WMJu0oq17dSApeEzBg6yj7EptS+HD71tRRj9M+CR9kpYtRfmr0quB4MZy3cAoJ50uLvSrXyn4ipo1F3A+Uzw7DbCvbo0IHTb4r9N9QvvXuFnMFl3XsYOHzgZ6xg7mSgV1UF3RtsFrjMjubbpyG8yc7F3+v7yLJvhQTdUqxFlHUy2y6Ev9CuMm7dc6gStn2sLvcQn1y44Yps9j3n9Pt33Lt0p+20pYUbbHTzY75Rvt41NaWZ4ptbQS9CGn4TPhMFYSspyTw/juFSobbN1tpEJYDczyhGEnrBWi+4MGsOSElKBp+zlUZSFSmNt6WTqHyWw4nc6puqtxcz4rF36kWdxX1SfAY5uyQLs8xonMyblPqE6W1yhUtWnU5XG6Coy+8FD6sV3rf8+XXXFTISNkMs3KytOpGTRWScVL2YJFAsXUUp8SmFD7cvgtBqx80T8JHWVVLFkY0Y1nCeSJjVtenok1kvnTdrZPuzW9wDtK/y3Q1fyI97cTi8bu0C6iqzpX1Xav/xuxq7qke8fxApkvpgJE5OIPO7WagM5zkwrSCAdffvHyUaaUgK1yPy5ywRSQbfSrvzt3iz/dZZK5fSaey879OfV7DTnb3QQbQ+dtVbknfMuG1fV/rE91pV7Pt/fONKlvW2YbLZFbOi3ekyjVcfP3CNR12Ci2bCk8OQ+BgO4VCLvj+MuQR3/EEIH5edT8yQKiDnT5QLAa1gbQmryoDTwZf+RRGLVvQKoWfaXFH1SrVJxE+zFkgjS/5rAxtcbBlubEc8n643ARHX0YpfFiv9L7ny6+5qJCRshlmlZElpxuZZOWgEVtHuZfYlMKH27dcxVSM5kn4KKuUIIXnRq92dgppIhZ10rS9/auo8ow6yot2Seb4mzpX7PStYlOhgyTTlv1X4zc/K9uoVD2XDhY+ZyhyMpUYROElJ9Use/vVuMyWV3aHu9M9GWe4fV2edEZWqz6vYSc10sU+qCVa4Vmx3EifFkVmwk07dfb97rSr2fZyX16wcA9y9jCV5p2eY037Tq35nnU55E6hALX3qi4PgQzifeKNMfKK86OGxcgAoQ52+kCxmOgNpGUnWPEtWKr+atkicin8TIs7qlapPonwYc4CqXppyl1ui968XFWYht0vifS9nGV2Y5Mlve/J/IvXCV2I023eRgndiOVouh+xdVRQiU0p/Ex2Y5RVU8PMkRfjxBwUXFX3k4o2CTLO3SR1Mu/0oSxz9eLFXWk8y+Xhxa6s7+b91wsUX5RtVKqeRuZgp1Cct7vPMrDlSwdK8SypRDE1j8dl1uRdlhwzG2vfMX1ew04ua+ieJPtgMsU6Ablys/qWHzdG+n532tVse7kvp+BX2+9UBid9zn9VL/4jCietDsR+YwKH3ikkufPh0/rBZjLmZ13TAKHtuggpaIN93aRD3WasDob6QBFPWvSJw0jasKbZO1VukaIUfqbFHVWrVJ9UeOq5QDV6qU4OXlCuKvdouaX0pfBhvdL7j1rX1MMKGU3S2nipciqeq7pRkS4dZcDWUaalOpfCh9s3XbNSSDvLQVYlgVLhNQsWwzn9OVaQdUWbBPELNyrHijIW458ox4RpO1pFnGrHRYUsJtvaeIEMa9yUbJQ9P0Wby4w7WDLOuY14jMtc1w8X+jVSn4q0i/KkapTSl8JlXsq12geVeGs/SpZbqk8mvK7vH/tMIa2vltgnWZYSnjXc/+XM2+Iv8Z61SpD7vQkcf6dQxN98+0vf60d/YjuK9kG3pckD/XlL/XOq8lsl60xaGH91sNMnfYtJxEhafvNaOguAFxh/kRqoZYs4pXAuv+IzB5HrKpcLjjW5luqTCTfldXLmtGkRdV2h+Jw2+/Y81b7pAoshQ+VmOJqCS+Fc7269SvMsVpwjVMjIUUdYcVrOa/m7Ql2WmVachZSwdZRXgY1dAOZ3bJp6d7evUqHKRz3ldo8LlTKlotGCYTHW+MjuxQZ9PlzDsdBmPlvue9lPOVI6aZ+Hu0/mnK1epOU1bWM+h47Ps5jz4P6StYcUvaO+2TxXt7F2gRucATRX0/3Zeb0PWY5pRj6bBIOSPpfCff4NF6My1zkDdb2s0hm1fcf0uaiDifYhrCxzGrFe13T8upChcjP1odKtDug6bcqlvp+ZY6X0ciRtKs+ZVmYc9JH628LIXmO/fVlnvaB1F/3RpOt0+81a2rNWEHK/KYHT7BQK+c8dLnVorY0vJpJfN/XPkIf5nvTOeKOvi1Ps+Zto9XwdV1VjuMyfsQ4NF6eNDzI0ydTBUB8oFoPASNpI5vtv+Ke2SeY7G+KfsD5puV2m9KPKJsLp0kymaPHymAP+6M/E3qcbHXz57zo9YmfUHLP/qqfcUn0K4awbrZx50nJV9IoOyTRvizKTod5y++HalN3lFjhur1d632viUapDlFkvq1HdiMRoumWZl2dlPKYbOSQyk1W2Y9KqeBtpDhTWJ/9ewJ7+6xMPXHSWO8KqX1puB/qrhXMuzJkWUNROmziFzMHQ9BedZAvTmJC3V1af40/b3fzk65aV16T9uvvFA9lZ/0+8YRYjjQ9eXLyo/y7KbXkg6jTXdf6Ls3nnWqdTqJIL9++W6uTibu4U8izv6ryW+2/f2N2nz8VxLtMWth/R4eztfTDXDqWw0XJZb0TPndhe2YPm9XHBpKM5EP215a94F8lsP7S+P5KWeLBuxLbOy50ZBy3PgflG53hUasdDhf/eJ/qjA9i4cKhWgTCVBE63U6iyXi7ahziFXG3NIWY0afaHMdNfeyr/ucPZoTGnpcF5nrjN1HkQ9WX4N6x2oLDP5wncIr6Xzb4lsTmX08YTRk3my9d1uql/3lHmz3WcZSQZFnL6es115yv/KaOoi+Glls2pxn/ryy3VtxQ+y9rG2aYzLEnvnJPuKnXStdFcgn7VU66eU9vTtnLLHLfTK61s1m3xq07whF0UOuz7dPAs7CeSZhsrm3IN3ZAytF5rMqdsXZj30zmcZ7Z+AWMWO+75qe1GVGPv6A7rrI0LYcqxO/7LSl4fv+ZFqnEoO/2cx4QxfR7VSU1eGofon+z/fheUWxiZ+jl9sXo5czZvmJPjyVh9uXW0vpAeQznV+O+SV+ovUuo2znN0okid8DpDdk9ydjoTptU4pu1dXc0HZZ40maRe8HV5btfbvsv2sfMqqr+qz5NW55CjTCf1npmO9kHOp/V3vNy+ccGUm+n7uXn7SFrmo+lGfhzU2ph1Ufyq8w0u1f4ubZ11Bt6T9i5Mf4Y76SQ8g7yQEQSYwEl3CrH4+AUBEAABEAABEAABEAABEACB4xOQjp1WaUfStpaF+CAAAp9F4M13Cn1WY6K2IAACIAACIAACIAACIAACxyQw4tgZSXtMGpAKBEDgKASwU+goLQE5QAAEQAAEQAAEQAAEQAAE3pbAiGNnJO3bAkXFQAAEViGAnUKrYEQmIAACIAACIAACIAACIAACIJAmMOLYGUmblgghIAACIDBN2CkELQABEAABEAABEAABEAABEACBrQgoh5/bw9HDg7nV4kfSqhniIQiAAAiEBLBTKOSBOxAAARAAARAAARAAARAAARAAARAAARD4CALYKfQRzYxKggAIgAAIgAAIgAAIgAAIgAAIgAAIgEBIADuFQh64AwEQAAEQAAEQAAEQAAEQAAEQAAEQAIGPIICdQh/RzKgkCIAACIAACIAACIAACIAACIAACIAACIQEsFMo5IE7EAABEAABEAABEAABEAABEAABEAABEPgIAtgp9BHNjEqCAAiAAAiAAAiAAAiAAAiAAAiAAAiAQEgAO4VCHrgDARAAARAAARAAARAAARAAARAAARAAgY8ggJ1CH9HMqCQIgAAIgAAIgAAIgAAIgAAIgAAIgAAIhASwUyjkgTsQAAEQOCWBx/dluvy7Tve/U4oPoUEABEAABEAABE5J4DHd/l2m68/zlNJDaBAAgWl6+51Cz5/rdIGhgq5/KIH7FzkK5H9wGhxbFZ7T4/s6XYM2u0zXr2txsgWn0LFbFtKBAAiAgCXwnMzY/P0AkBMTwPxqbjy71nqv+eUZ29e2w216iWvu9zavL77uszLg6rQETr5TqKz27BS6vN3ga73ycsEfe+h93f0C8zZhCnLavjou+N99umInyTjHDXOwk5Db9OjY7QOn0IYNc9KssfA8acNBbJXAu+jzOy6g1Qbb7OFy/ktz4dtvVKBctG49D/7o+dXT7BJarrOc89Ozly8o3fVX33wnauntb0/Tvq/fsWXmnnAKba+DLyjhpDuF7Nv0mk8lvGPk7ZxCTjvMoJdz9lgDsRgsX6BcKOJgBE4zqB2M26vEQfu8ivTHlPMui+iPaTBUNEvgPfQ5tYDOVh2BGgE3/614PWx2ZsUvTrUsu5998PhddnKm1yHPX/eyMnbodTfERglP1L72BWFuXbguIziF1uW5Z26n2yn0/L2ZTyuu34+q7XHsFNp0MNizBadpMh0y4fTKhe0sNop/NYETDWqvRnOI8ooO3kNICSFOROA9FtEnAg5RNyXwDvrMc1K8qFtDVdLOhiD3V4ytHzu/qvkUstBO1c69oFVfe3Om9jWyvu58JziFXquKW5Z2+ffv38T//ffff1uWNZQ3eZNvX5fp+n2fng2fVvAA/M5OoWlKGFxjaN/rG98hJfr0xGca1D6xrV4xcf1Erh9c53dYRH9w86HqEYHz67NbQH/dq15qRtXHrUKg5sVnTRwl67ZHnzq/qlpnJNYonnAp3Efc7+Jk7Wts5b/XnC0Ep9B+arl2yZf//e9/E/1HjqFD/vt7Tvfv63T5uk333/Im0UUdjMF6ncd0Uf6rHiwWlHaLco0zzDrc7IHcfEbRNcnbGm8bb+lwMsbBfz+8DO/FMed7ne6/D+MgZBluRi+cnriyaSeZ/u85PX7Iwbisb/IcF6dDzGb53bTbreXrrXzbrgtT+bRDZi3njkHNbO2Vh1XTgcff9+nxQwfM5bentumVJnDnM2czwsOandy8VTnhWG6VeamX0SHRX9fJ6meiLrFuCR3y+pY5KN8O/PI7/ZY+tzzUmvq96QdGVzhfbufxvs9Oeq6bt09/D2vnRf/VrX3Yz30+pJOJNk2Qb3/cpFfjrFjA1j4YM2ZGi9/CGQAtfWHZD1h3WP/DdkvbZ651529TG4VlvKy+ss+7Nnj+3KartLP/yF6Vd0O3yEy1XbZTo70yyMK2ZL0y40KiD46Uu6Y+B4wbxrJQUwbu2K4m5ycy73bOMnX/deu40F/SKikXc98415LD4YXzK9n3/VjP4yvJnTiDZ6EvY7rROqbEROf7ml1CFLvUBqXwkfq+rn2Xdq5/HBxtI7abr9iRaOrNY5nbwMHjAh3zkhzL4v6w0HM5ZlmWr6jPrN+fdxU4hY62U4gWnnQw7u0ntcCvaDCndJ+gSKZjuk5lDEJh0m9MtXO4LRZUf9bxkpy8lxwMpfCKpltE4QkVLZJlPcno0IT6y+0ic/G0NqdFNE1eycE4LzorzqiqqU9NnEWlyg+6ZY6zbpTPDnDkhJtJUZZmsDITGjmZCQujv6BFjtxmvQqzab8zn5damxHsKPyjiYH99DR1Flm3zE7fzCBo6jzz8p+71vyZ1uLktoCjqX25f4c7L628xC9zKHmpnFK4qYadBJJTyJfp+2RqomnTWL2aGU/UtqRvNFZsdS5Br16VWBTCR/ogYTZOQ2WiVdAky7O1/5q62Ilbr30uyZUN720j4yzpsFeD9eWJtP2NX3qxTis21EHYx14N9EHBK+7DtXayX59JL/vGsqzONQbWL9QGODfKFEYfGBfCjF54Z8cL/4IhLtmNq2LECGLsMr8qyEQCGrug2u4x3RgdUwJ41esrK3NyfHa2QQ8fq+/L21fYud5xcJU2YjlUHQpacfjGjmF3Pw+Ta4anW0uq6wEq2chZeJlZE2e4FsiACAROoaMgsW+/2j8VU+WvNlpq6pM9dIY3t6ATNWLHUWqw5LcW6mBb6qSlcCFH9aXJ8zKFO3V4wAi3Y6cH1HRppQlnKc9SeLrk/pCSzEHOTW1SGMTdpEZz1w7pVSBw443TD31i4fJKMBiSmfWSnJKKyHYhkHag+SQZpj5O7iJRNy1JVm+4Pqm/VFcqpxRuBHL9lpyLmvNhkk5bSpByFInaGX6FyYWIXn3pePToVXHCk2XV3we5btl25kjRb3dfcJy2ss+RmOHtQBvtVV8zXhj91+0GVTAlW+r5DCWzUOZ2arZXg32wu9y5Vj36XNylMGp3Z/GKV7bNSzZqkHNRinSELF9uv9S4kM528xDuD1pBVCd1DqtFjp5leURxi7Y+iG938ifHFMNa05NR3RgfU+ZqOFkqXj6X+qDpF6o9Gq3vLK12tUn7cj8JnDFuvhPVUV8zrNVGc5la3dd85seyzNcD6TbOOUCtlDqnNWuAvJhA4BTaf6cQvc23n/X0GnGumP91HTRpfH3EN7kwE5yaQbBgeBhHasKUHLRcwlI459/yq+Zp6xHrS48RKaZRy+cKVPLk6Cv9FmWW5WTllxHttcmbBrE/zdWxjO9SmT9NWuxvKb1KZVvxvIlFkF9l26VkLnEthbMsqfw5vPTbVI424ZwLMJPs1OS/VE4p3BRjmZvdfXOx6SvDJi8zJe7XgXTRQ3mWWBTC+/rgXJemSa9JNtAX1LrY/Nawz3Otllf9bbRffY3MqT7mq6gtHgdkpnzVdvIFpsNH+2BvuUK0dn22iUf7kRBh6NLIn1k4mcxHOfdKWFFudlzoLXeNdCndSj2vLLPJrjSWlXNkJcutaCOqWjI9hzXP6xRgRpbaoxJ0m0W7SPh4kMWucipyhfoqkvtHOU4+El/Utq8ar20cNHINt5Ets3TMA1dv5NfIWxzLdB0w5arMWKJMOo6C39UImIOmj3am0Ko7hbLKJjlyB+JvQHO/8Vv/kbRShhWua+trjG1cD638RIcslVMK14oqPVPztPJVLzrUMycu05XOF6C3toF3fylQahDJDfDLXBqfDMrsS1P5+VD1wmzrl2ddmHMYbtM9cXaEHcQH9EqVouZh/Rlai9yO0heq5VjUwD6obN8qXc1NxkrllMKNtHq/TdQsuWNiEX+U4SLDAb2ivEosSuHmc83ovJlSHxR1aF5EV/NTxgW1Lno7p+yoEL3hcqCNdqyvn/gXarpgNSIzlaW2kxAiEc52o/iKICVfIl9fcil84HNIKqN5LPOCrXdR4xQa5twpLpebTW7atuycz+axUeCin4iddtki95pfJfVdsa2uAtxG3X2Q86FPbVvmdQpAo8vRzhclmntk63Qxxw6Ea6vrT/rstFXq++r2Vdu1fRwct1fMvGY+nm65mpDasSw3H9H6L5XNOlAjB+KMEzjYTqGwQqucKRRm+f53qkFSqp2auC2iJgaoUjml8EU5FQ/UPBuMrUlvP0t8RLtfaDdMzmB56VQZtLe5PsXYxRoyswSq7BxY/8vfCMeOOJPDqF7VixHFTOhpFEu9HZW5xLUUzkJVy8EJot/KcngAj1KHt7m8cmGUSynclKT321CI+c7IrEwotUlm6syoObeWqwG9omJKLErhCVGzfVCkqbJpIv6QU1eti97OqQmgFKX+eqCNqvucUsZgfav6Ib/Zly8rRmQmqKrcgnYifLgPJvL1JZfCB51CvhxxUduPRJKhS9MfCzuFhjl3SliljxVt1Fn8eDLXL2aHiZ3TqfMULs3UZ3BOGOTV5jAzzGXfFovguR5cgNsBtNE42NQXDOvaXUIkv2Y/3eHR9Pn4XMXgargv7NG+ah9ZZxxsaiPH/GU7hSo+I9T03Te4ym3DtZUvGBeSQOAUkgGHuXZe3svX8pDAw8h4JEHUjqUIuNPEUpGk/pFat1pjW3b6ZA2WkJLiyYkGe7K1QVwk67hcT2ZTuMqvQyxKYvJSJgWjetUpDk86ZLtUZzUqc4lrKZwFrZaDE0S/leWwvkapw1sjS2KCWyqnFG5K0vttKMR8xzKv38fmMvSrNjkXeZRYlMIXGYoHJq3SB0WUT3IKvbzvq22n64s2tphnFW/aF2mr7YSVZfEpryq3UJpE+HAfTOTrSy6Fb+AUMmWbcvP9yMs4eGHasvCZxTDnThm53Gzy3LiQTfiKwGgBWewnB5hfLXQ+78jiNtpsHKzsC7W2a271hC0qOMHG6rtT+y7alCjUjwszs8RVZRtxmfSJ/tb/avVhMZZFglG4HMfH2j/KHLdVBAKn0P5nCqVl5k/K9ENJ0+k+LkQ1SBqFtJEOYqcG1lI5pfCgkMobNc9KY6umDcstGSwf2+TFbzfyg7hP03OxpsxUfkV+LWLqC85BvWoRIIpb3X5ROh48F4unON7WfSGVfyxH6r62fU05CYePy9uwTC1eSuWUwk0Zer9NVW1t3U2WowT061VFn6tipQjlHul9cI5fCp9j8tVA/1XrorfzEFMWVfz257dffbN9zNctWuia5wMyU3q1nXyB6fBSOpGFellKXwrfyim0Yb4xB7PI+VdwQFVwiPNd5X50XFhFiLFMpB2Q12quFZyLeciMK/KT0fmabLRfCLs5QNLp01kGl1XzWxwzjAwFHV4UlLdZSc4j9a1Imyx3IX+F3eQ0arnrjoPFNiJZXDuVjsRgsUd+DcfUfNFnnNcBE83I/IK1lZcJFzGBwCkUBx7x3v/p0u/0d6hHlPtlMqkGSS+97IXNODwK5djJT37hqUuVeaqWWWts8waJJ2u1BtQP5KVBPFOdctC6MhcXA0IgY+Szbxh07pTFkF4JGZovjX6UJiv626MhmVW9FNKXwjmq06XUVmqOlvytLae0CHIck59hFcqp6/tp/UnVj3UyOWGmhMwwdeZVKvPcc8cj7zTU9arU53KsuL5p0coMTR7R5wnp/GxId19Q9UKXsUeurNwDbbRXfQ0D+hQks1soJVvq+cyof+zO6SzrZFcfVPVjljhXLsfq0RuWmfNY/uo6uoy3whOnp6V5BsvcxVmK+Xu3ZyUaPePFlowQXmcXmyx7cfFHdrit3FCKgTuvY7ZN8zY7H8f0MeJWaz992Y3yizmkn1dmshjRDU6bzr7cFziPrG4uCsizzr2YqypPHffzZW7Wvqoe6FxN3SL94vouEPoHel4+2F1w/fJ9IE7Vd29kNp81pm0M16ukN74PiH7RJxVS9RAwB03/+/dvov+OvFMorNxzenzTXykrOR3cRN0NiCVlcuKYLgAAIABJREFUDMs46Z1qkNJ1MRzNn4QO6fhvVyODJXNigyZT+nTm4OZS+8jcKq7VuukGkmWTuVrDFX+G6HTp6zbd6OC9TH1lXvxXEeiwPv+WJ4iwzs2qMqv8dDltuXQA922Kz1+a+PylzGJmRK90ieqektOY7MLtJ3St0JlRJBMdJn791v8EdLfMJa6lcK4aT2z4vvW3thyT78Po+zVyrrPT/fZDk/p0/+X+1d/39X5bqjK30f03/JP1ZHfMXzExbS+lKuVYFz6mV9auSKlq7ORoHzQ1MzpFNkr0h7/nZHfe2jFU+6svzDnu+15uzU6q+qe3M+tPHf26WGNtdJ3sLmTZStO0ZX0NA7Kh9BdXv24T6fT8bx6XRMvNweasoQ6ZKQe1nUTWhXDWjeY+WMi3KBeJ2KHPq/QjgWfs0s1JM2Mn59/NmTPg86jMYs0e7lteII6NC1w0M7+4ssvlcsrRX+cM/SLbdptkj9JytnKuNCcs6bcmgHnmdgN+37JjrkzeqxvcLr3zOttHe+a8dhzI6YF1YuhOhbH6vrh9VT2oHweH28gpinHwVvQBqVe910bmr/u8Lpdj2Z+1KWZ8rSnAzeG3XlvViPKJcS7sCOLf94LwIU4hN1HiATj+zRliau95gTD/VQAaNMJJqqYZ7qA4Menwg40xjC6/7I4TLd/lMzaUvm4+T2ts7fN5QJHxZf3t4eVzPemsKnYgyDQ1jh42uqlJ+7IWfU/6ZBa6L9rH8wuezdxYQsOCHAZusR3/pQpmxvG133690nJreMYyB3W8GmdQvMiNc22TWeoe61TIUuqUYe/11pbMb3P0duE8td1PY+3rSveOMi7f9t+KhePU0/c1XnMdWYaSY1ZrI+7HpUVA3N5N99161cNq/rPCI32Q6md5hZyNfc/81Zc5HS2u5rSpcSGt57LN574h40v73NQeWuTuNmJOr6uvYeDswbKNyF6Vd0NrfSHVRvw2XrZnfAipbBcTL7JXjFwrN90HpQ6wLs26QHnWlktxl6zsy4t7Qp9N3oNjGdd7jV+2+TV638ZZkS6Yh4XMldju0fwChXWlflxwWXSVm5aoJYT51szhKN895ldxfVjm0tgn0/XoxmhfsP207Gyb5UzNUzRdFHGVlw499X11+6btmLSBc91lfLYHo21k2Lv+V9sH5vZqvJJrz8xYRuuFlrnZq9ZWjbX9iOgXqiU7hPj3I2qOSoLAIAG/zXEwHyQHgcMRMJOK9E6hw8kLgUDgZATM5D/hdDlZVSBuEwG7M6TFAdCU/ZaRMS5sSffYeb/K0XBsCqeQzjqbZufTKYQWQmJtJWC8+PLNdwq9mCaK+xwCmBx9Tlt/Yk3dFt77mmfzfCJH1BkEEgTgFEqA+YDHdmfICZ3uGBc+QDv1KlqdPa+jQa/VGz49u/MOa6tdlRI7hXbFj8LPSoC3eJ5VfsgNAjkCZgKIXQw5RAgDgSECcAoN4Tt5YvepjPKZzJErhnHhyK0D2UDA/aGXF50ltAVvrK22oFqfJ3YK1bNCTBCwBODJhia8LYHn9KCDb/9dJ+0A4retNioGAi8mAKfQi4GjuAECGBcG4CEpCIBADQGsrWoobRoHO4U2xYvM34KAPExNHLpqD2E84Rbwt2gUVGKcgDz8kA+AdX+dDZ+NjeNFDiCgEUiOJ/g0Q8OFZ68mgHHh1cRRHgh8JIHkWEjzUayt9tAJ7BTagzrKBAEQAAEQAAEQAAEQAAEQAAEQAAEQAIGdCWCn0M4NgOJBAARAAARAAARAAARAAARAAARAAARAYA8C2Cm0B3WUCQIgAAIgAAIgAAIgAAIgAAIgAAIgAAI7E8BOoZ0bAMWDAAiAAAiAAAiAAAiAAAiAAAiAAAiAwB4EsFPIUf+///u/PfijTBAAARAAARAAARAAARAAARAAARAAARDYhQB2Cu2CHYWCAAiAAAiAAAiAAAiAAAiAAAiAAAiAwL4EsFPI8cdOoX0VEaWDAAiAAAiAAAiAAAiAAAiAAAiAAAi8lgB2Cr2WN0oDARAAARAAARAAARAAARAAARAAARAAgUMQwE4h1wzvslPo8X2ZLv+u0/3vEPr1tkKA89s2LSoGAiBwcgKwz8dvQLTR8dsIEoJAigD6b4oMnoPAeQlgp9B5206V/CyG+v5Fziv5376OrOfPdZbn+6GylQ/PwlnKjGsQ2I3A723uX1/33cR4l4Jb7dW71Lu2HrDPtaRG4z2nx/d1ugZj+WW6fl2n688zm3lrGx1tzjBNz8nIVDFfyIJIBNo+fpvyFBOJ8dgQgJ3cThFa++92khwp5+d087Zw3zXNkahAlvMQwE4h11bYKbSj0v7dp+tBdjfVTvIwIO6oLyj6tARMv4FTaLX2q7VXqxV4koxebZ8/tR1Mvf/dpkfHzuShNjrAnME6HLZc+D3MArPkXDtJl9xVzHfsnyN1GknLDTnUfzmTE/x2sTqAfToBWoh4QALYKXTARvk4kQ5kQLsGgI9rMFQYBPoIwCnUxy2VCvYqRea1zz+yHfYct/cs26iW2xGw0S4h1l678L5N5b3LnAK/GoF37J8jdRpJq/F952ddrHa3T+/cIqjblgSwU8jRfZedQlsqy2Z5H8iAdg0Am4FBxiDwXgTgFFq3PWGv1uXZm9tHtoP5JHQnh8XOcwb+LOn226sxlelMPS/FT/Eqc/vYaO/YP0fqNJL205Soi9XO9unT2gj1XY8AdgqtxxI59RI4kAHtGgB66410IPBhBOAUWrfBYa/W5dmb20e2w8c6hdxZQl/3l5z3Y3TrH84W6u2blO4d++dInUbSjrTDGdN2sTrQmuaMzCHzfgSwU8ixP/NOIWO0/OFmdX99zG5LdnF/H9ONDoaUeXxdp9tvxRGHf8/pvjho8jpdv+/T47fyrKAqA2q/r7eHUy+/45/rU67/4+e2qOvd1TU3AOzHeXmY5/XLneNg2PGB3Su9tZWHApNOKFvkQ96XSXtj+vy9G72SB4qT3Mw6NHvj7ctvb7k8fxbD38PoqH/+/dhkMt9S35ifxpj4xPG4TvPz63Qf6b9hI2TvlmWy3rGtsLZAco4zNHm4M4UsL87D9ttrsW3CMuay7hXnmjynx4+uk6kzUZZ17rSTMYiG+157ZQ7C/RYH6Dv7bmxzxRkw1D5X+QcBaIwgu/5Dh4YXbE3HuDDaf5vts7RzrJM0Nsg6/6M66/Yilpd1cfFbOEOrxW6w2sRls12YtrZ1kpmcL0TXXh4W2P02t1GU3t9WzRl87Gm0L8icJh5zlXExiOduhvoRSe7+CIY2xmrl7ftsPxvbbyfHiPW3b/tYxrqwsDFR/7soNmckLRPq6b/rjKGvnQMPsxL26fkbjSnJOTBTpt923ZCpcQ0CvQSwU6iX3FHTCWNUFJEnNzSgGCfD7AQyhuxfYdsyGbt/1+n285iecpHxRxMDdrwsHTgLuZplzuSZzYucXxezsJHyPv/scxpIKTy1QA/kzpYTxJz8JLKLc0Jmz77S8RaJVLytqV8mDv1FGqtTUUmONS201H+ZPE38UriJNB/QafXYOi2sdm/zF2O66uvetM+9TiViJgj0Fy0WiwLDwjlVevpvqrjcc1Emt6GdQF3tYvrrbm2BixfLzE4hw4sOlxeO57kfpg6udY7DqK4T2Rvj/KB2TgtPE1pyalCZM/M57V3aMJmNqHOXnZR5NV0n+n6VvRpjZSfyYfuQ6GYBZBYgGaeQt02948IK/de0WWacEO0w66QdB6VO0uTc6lZKJ21GZrGUsmmirPiyy24EmazAKsiv4cbZr4QlL2fU0EaLzJrSjvWFuGxeMOZsDacZ6kecCdufDv3iLF71u4+NHbGTY2T623dcJ3ttDtV4JK0n1tIHWYfPNAd2Fe1i5diYFwzRSwVeW6Xtx7hu+DbCBQg0EsBOIQfszDuFgjbvMdS0kAsysTd28pOY/DsjnzZsk3OGVEzMm2XO5JnJy0xYkn8m1zkLaNCqmXxlylmgdKzI6dTKOTsgcb4b/eU2M+HJsEiFG71J1NVplpmUqG+TS1xL4aYAN6j6CUjcItIpEIe133fXt6oumX7E7Z9gne2/7dW0KbjMQC94EhPqt6YfdhJNjqyEXeHdUYs6VTjzzCI1Yxsyda7qZwuZbIabcHYTd7WPmGJz9mqUlW3PpG3POQOcfiTTkuxFvV+h/xbLmJXB62SifSlmqY9n9WcuKrgq5WneFpMjMzlmUXYrsAqkarjJ6UFNNg1ttMiuOu1oX1iU7HZv1tiZgX4UFOvaWNn9EUQ7+E22j5j2JKdsOIZwlXI2lvJN95GcneTce39723cdnczyLFRpJK3PuroPss3vb9/knJz1ZqM5MNW1ixXL1azP6+iGbyNcgEAjAewUagR2+OjNhjozucnkpS34utlkylnkWYqbCq+ZwJq0WzmFOjhXLHLtZCmT9wJgw4MUS5NFakKUeh6Vm2qPbJk8uSjVd55Ea064SJLB25H62glAsIA2XMJJbnLxuAqrxuqrZVoG8cRcsxF2AV7XfksupXTuc7vAYVVXP01Wn1Ktsw+tcHKIuLWXqf4h0xu5FHtVYTcom1ydTRhNaP/aelAuTyl6/nqF/ltqMyGAkbm4qLB/bSrQSZFH+8JhxG6IgtkplFh8yJirX9foaK7QhjZaZFObdoW+EJdt2jrj1Jbxe/uRzGN2/KUd6WH8Y95lbUOpPVPhNTpo0ip2cgVMXe27kk6225y5wiNpfS6pNvERxEUpbiq8gtWmc+Ahp1BmvjJQX6Ka7UsCOy5BoJUAdgo5Yp+7U6jDcE12ghwvAluVz8dPGUgfQVyU4ibCa41o9WCZKEdIOl+W4ibC2RkwZ6RcVQyaSqrqRyluSdlqJmmm9MSiKMHCC1wKF3mvpp++cOVisL4xX9K/6xd9enf3hcVxfECJRSncZ9RwoebZ6BSqWMDG/ZD1reiiyLWHes6N5W3OU0s5k9Q6C2bJcOfcMJ9bybOTtOtwwZdsc1EsXcac6NkqrMynYvFZCHS+zm1Kfma32rig61NU9fxtsk2WyQzrCp3MtYnWDsuSxJOcnopo7BBIOaM4/CW2LpBrmqbqOsQJ3X1DGy1yqEy7Vl+Q5Zu2rnQKUbrlmSKlfiRLo2u2I6GNiGMd4v7FNjbXJyWP5v4pExeuW9t3LZ0cqdNIWo+jsg+a+KW4iXBm5cvULowdyqxjtDQNz7pYJerji02Ec32H5jm+EFyAQDsB7BRqZ3bsFAljowpdipsMt5OU9ERVLS39MFmOkqQUNxG++uQhUY4icXknQSIvXqyoefLDRFoOHv5V88+8Na9eKCR0SC1P1KIUbqKusKgURWYvR+tL6dkBxHULDmjPsOb42bNwVp4sqWXqvLU+V6XTypswk67KuUIOF6XORm57ptAj2v1Cu2GyEz+1zkIrSuEiau2lxk5Lq8k9zEoryD3jc590J0SiT2fy04N0fdLjJp42tEmvTsqStXaQ4YvrUbvhM1yBlc+r8aK6Dol8G9pokUNl2i36gmnrBqfQQnZyFPHZetlPAzmlbePcJ7ccc9df0yavtbEjdnJLVrn2XUsnm22OqPBIWp9NZR808UtxE+FVtjmR1ss5eNHFqiRTInwt3RisMpJ/MAHsFHKNj51CSi9IGC5+c6UvDJR8So+S5SgJS3ET4atPHhLlKBJ3O4X4rYGaJz80E3NlEczhK/wSO9nWLJf6NqN6oZBYQJa4lsJNfV+4UFqxvsyVqkATEcM8V99cGGVSCu/RDTVPnbfW58yzjl0ZzEbVuWI9Ck4fxQkVZKnWWcQohYuotZcaOy2tNmEdY6WVEj0z9VUOPnc7GqStiFJW3ur6VJnYRmtok16dlPJo7SDDF9ejdsNnuAIrn1fjRXUdEvk2tNEih8q0W/QFoy+a43khZOFBsh/F6Wwb+5cHcfAh7vexsSN2cnNsifZdSyebbY6o8Ehan01lHzTxS3ET4czKl6ldGDu03Ry4i1WiPl78RDjXt2+e43PHBQh0E8BOoW50B02YMDaqtKW4mfDawVgtN36YKSeOWlzopvKqmcCatJXfnqfKWQhcsThP5VUx2K02QdXk5mdGPt66bid/6YWfncAWd5Gl2iPFIpClNAF45UJpsL70p0e/aIEdcWU+9OeIU06UVVgx2MpftUydt2Yj6vRVYaqWOyJzmFaT1ccolV0K9xk1XHD755KYchV7tYU8kRypiXKWY5RH+lbXp3R8JaSBQZ1OZnbsJT7jU6QSjxQdF6H+sqgHK7DyhTVeFGUr5NfQRoucatPWxlsUkH5gFm7aX4NMJ0mGpPpRkMDUQennQaSdbyo4Z21DKX0qvEYHd+Sntm+qLo1NqOZdmcdIWl9ESz1KcVPhpn3z8706++2lbr7oYpWqD5eeCk8953T4BYGNCWCnkAOMnUKKpuUMlAnT3hbLfMpvj0zsXDkyO7ouxLUTNn0QIeOedmY4WTf762O6TKX6Zwck1wbq5zIxt8F7z85NwnJvMspvOyIHiJRtoH3nbF67UBqqr9ulQucIXYNPEmwdLjl9LLAq9ZWZV8OVWqbOW1sE2Alcz18fc4crphxkXAVeJASf1Fn5Uo5KXuTl/8JJX/9lsXp+fZ9TE+ftleHcxWrmrBZrHurtbYKcTUqxtnmWxoVM/mmhwhBVT8MofOd1MsOr1Mc1Xef8U7+lPFv++lh6XEuVvsJz7mu9WTW00aKIhrQjfWFRLj1wOp60Fy4Rl6vmYR7W6Tnbp3yf0ksx8wf+7DZ1ZpqetPHpfjZ2xE42VjKIPtK+nDY3j/JndgVj2SyCyaOzTUfSegka+mBxLpLJy+hwqp7cF9fYuecrFl50scrUx+SeCV9DN8Ia4A4E6glgp1A9q3PEzBibRQVKcQvhdMAeOSRuP48gazqj4/FNi1z7fXl24KOUhXKCzMWnHjJf/w23WVynFnCP6UaOoW/6qzpzrpyWdmRQeGmyZ1K2yFyKmw1nmR/Bn7M3hxvS28qf+3TdcED0lFxbX7OONR/btP/l6zYtz2+Z6zPHDq94EG5vX86nbrLNsdf4JX3vra+d/C31znDIvZHO6k17v6rioJap8+Z2lPnyhMfwIr39Fa3sztkwHGUicc2cKZ1Iac7ouFMbGHskQ2xiyzIqb7J2isrL9nu1zkKoUriI2nbJfaXPXo2xogO4l/134vOXcg6U4XFB16cmdg1twjppnTS3UCeFjoSjXCSNqTO9dBCx/p7T85fGFKuXDzHmcGpuox47afNYgRUL0/pr6sw7SFsTD9qnhvYlyZhzq93Qa+Wcmpk+YMu0B8r39iMu2zp2boG947D8r9WNi3EKDbRTvhAfup+NHbOTvgKNF7a+/XZyWCc7bY6p5kha5tTSB0txs+HcvjvNgXtYZetTtn3DusFthF8QaCSAnUIO2Dl3Com3xfw2KPkrJwVyssB/CUeGu7fFMi8+DDdWsL/HRIsx89d7fHz66xr3hUPAJu2VWRb8NGXayU408TLG2NUpIfPj5xbK+zUvFuWbtfnNXK/Ma3GenWxcZzvRLA8uktroNU9OxbInm+W8IGIdsxOowBGg5tDTvhrruVzmVuXwU2UqP+yur9PZWd9cWcmJhVbXzv5brpaPwZNgz9L3LynPLIeMf/smB3LYLy0v2UbWwbx06XgRzIXG+fJVTqv1e3ZoS1nnXReyXiznXD8SRqYz9fNMQplH7jS5uQ/p9mourYeVqdP3wzvayBE8t93yJcBcmrhqHhc01qJc1h31jXGvfbbymvq6dtN08kosRNVSl8u0zt795NNrbUT2ndt4Wd4Iq2VuLU9414rXB26X6Hdhy9xnsqV0NjzsY7xjqi/tXDuNc43dmHOYr5jDsp5znHX6Eb30ye1wnstbXLnFLHGbbdoi1qoPNFv1Khurlc19qGQneyCs0b6jOtlrc6i+bWl7baxmq8L+bThK+6GOofvOgetZlepbCp81cVQ35pxwBQL1BLBTqJ4VYoLA8QgkHQfri0oTq1dNLteXHjmCAAiAwJKAdAotQ/EEBDQC9oypLV8yUKl2wRwuojVptGfzYrsvvZYnnoHA4Qi8cA58uLpDIBBYmQB2Cjmg59wptLI2ILvzETBvA1Ofy61YHQy8K8JEViAAAkchAKfQUVriXHLY3UIbjr1mzO19EeOcVi/cJXSu1oO0b0PgVXPgtwGGioBAmgB2CqXZIAQEDk/AnoNx31xOs3BSP93YvGgUAAIgAAKbEYBTaDO0b56x+6Rmo3HROp16zhLiz8ov6b9c+eYtg+p9DoFXzYE/hyhq+skEsFPItT52Cn1yNzhj3Z/Tg/5c+b/rpB1gumqNsEtoVZzIDARA4DgE4BQ6TltAkpUIuPOEcmcerVQSsgGBnQi8cA68Uw1RLAi8mgB2Cr2aOMoDgWYC2uF0y7+i1pxtKoE4oHJ5uOeG2+VT8uA5CIAACKxNIGnncAbL2qiRHwiAAAj0E3jxHLhfUKQEgVMTwE4h13zYKXRqPYbwIAACIAACIAACIAACIAACIAACIAACjQSwU6gRGKKDAAiAAAiAAAiAAAiAAAiAAAiAAAiAwDsQwE4h14rYKfQO6ow6gAAIgAAIgAAIgAAIgAAIgAAIgAAI1BLATqFaUogHAiAAAiAAAiAAAiAAAiAAAiAAAiAAAm9EADuFXGNip9AbaTWqAgIgAAIgAAIgAAIgAAIgAAIgAAIgUCSAnUJFRIgAAiAAAiAAAiAAAiAAAiAAAiAAAiAAAu9HADuFXJtip9D7KTdqBAIgAAIgAAIgAAIgAAIgAAIgAAIgkCaAnUJpNggBARAAARAAARAAARAAARAAARAAARAAgbclgJ1CrmmxU+htdXyTij2+L9Pl33W6/22SPTIFgZcSgD6/FDcKqyAAnayAhCggAAIgsAMB2OcdoKNIENiYAHYKbQz4Fdlb40xOist0+bqbIp8/V3tPz/7dpkejIEH679bUjYWdMDoGxO0abQt93k7a98i5Sp9/b7NNcXbmPWqPWhyRQJVOHlFwyLQtAWmHXvliZq9yt6WJ3A9GYOu59/3LrRXM2qD/5Sbsc4viPKfH93W6eua2Da5f1+n682zJ6I3iPqeb54EX7EdpWOwUci1x5p1C6iAiJzADCzgzgMAptOivrx4QP6kdttTnRUOu+GCkjUbSrlGFFn02cQdsyqi8e7Pqkf+MMvfUc800LTq5Rrl7tdFe5a7BbJc8/u5icdX+wqtb5r3K7RYYCWsJHLEPvkQmo9N9C/JPsc+1OpSLZ9qSXs6/+ZcFXTo7oIM55gjrI4CdQn3cDpVKLqK911lOYAacOl2d/FB03kOYT2qHLfV5S20YaaORtFvWScsbTiGNSv7Zmdo3X5P3Dd2rjfYq97wt+ZjfML/UOb1XuedtqbNIfsQ++BKZTrQgfwmPLRT2RIxHq9/VRh/EZ5TvK9Jjp5CjfOadQpPYFXT7dRUSTiHvKOrQqK5O3lEOkuQJfFQ7bKjPecpjoSNtNJJ2TOr21HAKtTM7U/u21+49UuzVRnuVe95WE58dDLzwaq//XuW2S4oUbQSO2AdfItOJFuQv4dGmNnWxzXz2hTsa66TaJFZXG51IBzeBdrBMsVPoYA3SJY53AMltoPNbLe8o6si8q5N3lIMkeQIf1Q4b6nOe8ljoSBuNpB2Tuj01nELtzM7Uvu21e48Ue7XRXuWeudUMMzqP4qVOoWnaq9wzt9UZZD9iH3yJTCdakL+ExxbKCqdQnuqJdDBfkfcIxU4h146n3inkF9GhN9pOYKSjSFfax89NfKNPh1Vfp/uvPfwsb4if0/1bHmjtDk/7vld9O/v8vU9XeegdHbpGaX/oQNuwLgvJ/2zZ4cFtLj3lqxxAKT9LokO5/Q6qv0dQj+v3Y9KOfrM85SF9BbZix8t8APgtrPM/klkvL5bXHCTuD2YTchS20BPn21fYTtevm2/jBdtpmuKyW1lRnt3tO6jPWn3qnj2nx4/OKvUteMyppY1G0hq+wWHyL9BnB1E6haxuCV1M6vPspNb+ap/J0+v2sl+NsrKij9mrOh2aY60js+1Hrf13lqLhatBeyZJ6bA6lb7ax0zTNukPj1sPYumBc+LpONzeeSRnpeq02ivMt3a9Vbi/nknz58HY7mc+vPZTb3I9L1Vk8hI6RvlQnNBH7y20rh2N3j6FTo61bre83lusqGvcH366Vc7NpatfJuMyWsZvbh8odmQP3z71nCYauGhfkPfZZyteqz+u0kZSg/brLxsr+5Oc1cp5kr72et4sVppDlufXAk9Z1cn2VnJvJrHboR0IHn7+RzIV1CkveqlecDr9LAtgptGRywiduW3PkHLATmJvq4LCVpAn0xThinuIAtOeffU6ODArX38a5Rd4XHZ4mXCh/9pR9WvjldihZ2WbnE0M3ndsY0YxTiAwH5f/zmKTcE5XtHVzLhSWXMU1WdjLIxggZWZ+O09NOGktvIIUhm/PVr0xdv+528bIwcswrfwhd3jmnl0tP6S8eXEwbRXFcG5NDKv+vj9VQ+069+pyvSSmUGJNTkhyis0Zz++T0yebc20aUeiTtfvpMjsawD8+2I6HPpX5TCu9mNWavSrpTCu9t3/H+W5JsGT5qr1aTuUIXvPQmrpt0R2OStfHCaeoThRe9bRTm0n7XW+5qnBtFJnlH7GRjcWp0Xizm5hhqQrl4onlGcfwLc+kuN8ym6q5/DO23dWN9v7/cGUjffGNUJ/v64Eh9R+beM63hqxYbGxfWmLZfn23BfW0UC912v4qNNTYns55pEykbe6z/2nnoiG3vaiOnR8aBFb0g57E7Z+dH9SoL9AMDsVPINfqpdwp1Kq4ZSJN/DtE5R9SJU4XjxBjC1ELaDqbJjp4zom7yn0xLLIqDlRvMqW6aw2SSToEE3GIZczprtKisu3A2zOF0ZSabmfAeY1vK07zlogl+UgdIsh5WA+0bYjnMXQ3/mjipCo2k7WujSJIefc7s5uPJyexcc+WVyimFdzmFRu1VxKo3Vr2aAAAgAElEQVTjtqd91+m/7cKO2KtVZa7QBV87EzdtY41cGX2lfHrayJc/cNFT7qqcB2SPk/bUJc5j2/uxnULbyiZz7x1Dx2xdf98fK3euec98Y06tXdXoZE2cMO+x+lJ56XmXy1ude4dSDN+12Ni4sKa0vfo8F9reRnPanqvVbGxuPdMjWCZNf//NZOqCavjXxFmUNDR2j+vVQp4Pf4CdQp+qADWGijtr/DYt6/CZgRoDFad1wSaMnCByl9GcNHmVyzOZaBHgJh4ZJ8wiSfygYUC0hjrlIOOM7e6YlLOr3dgWjCUXW9SDPla97ctiHe23Ru/a22iu5Uha7xQ6lD4n9K/Ub0rhPYv3FezV3FJ9V+3tm+AXF1/sv3GC8n2/vVpZ5gpd8LUpxS2F9+iVL3zs4ky6UappjZ0s5YFwS6BrDB20dd19f7Dcuc375htz+uVVjU4298GR+tbYbGOv2neyLWtfeFJhF5M5NKbt0mdReHMbibTtlyuOZTXt3S6gmqK7/6q5hQ836UdUREmPCuGjehXWEnfYKeR04NN2CtV0cEKjGeKyB91BLRjD5fejdL7ObbqLT9nCLmodJ+k3LGHs9J01+EP5FAyVLNsbLflQuc61idYOShbzowL7OWJp8Otn1d6+s1S7XKnnVF2mK511VfHWrrmNRCVH0rJT6Gj6rNap1G9K4QmbJFAuLteyV4uMGx6oLHLpV+u/uUL0sG57tbbMFbrga1CKWwrv0Ctf9uDFmXTDVHXQTg7i+qjkrWPoqK3r7fuj5c6N2jnfGNTJ1j44Ut/cPG/moM+9Zfgq1xV2MVlOR9pWfZZlt7aRTNt8veZYVp1Xs5SLBL3912f04n5kyi3pUSncnF8an0VUWkv6GuMiIoCdQhGQT7kdGZhMWlokV/1X2iETEuczSfQFbsmBEeaVvuuceMgMKwwVR2dDzfep31ybNA+I1QNRiekKrESF8+0rIr760rSnPSsjOCOLBhwaKJNna82C1sSZY4dXI2n3cgqFNVjeqfpc6jel8I7F+5b2allr/Ulz+67Wf3V5ck+77dXaMlfogq9HKW4pvEOvfNmDF2fSDftWd8xODuL6+OS5MXTU1vX2/dFy50btmG+Yvj2mk619cKS+Jm1iB/3M4T2dQrJ+fJ3TZ45Dv61tJNM2X685llXn1SzlIkFv/zUZ7dCP5nIz68SKsXsBwszb3bld2eMxtJSf/Qw7hVz7Y6eQ3hE0Q1z9lkTPsvzUGaflp1QdEwa1tBXyaTBUbKgX56tEsuUmC1o7RMnD2+qByLJYsubsVmDFWfFvsn05wqt/y06fXNuwtM1txAmHJzwrtNGr9LlUTim8g9Xm9kq0Y+qyWTdW678pidLPu+3V2jJX6IKvRSluKbxDr3zZgxfn0Y117OQgLiQnAkafL4s/5jFq63r7/mi5c6O2jmXr6GRrHxypb81cgni0yjQzbLiqsIvJ3EbSxpkm9FlGewkPLnDNsaw6Ly68/7e3//L5ormD92v0tquNSnpUCs/hqtCrXPJPDMNOoU9sdapzjaFyHWphKEY6aSXvlHGpMUzlIlonHkqODQyMzPRXmpKfxVH+xz5TSN+5pXCpfJRq38rk60araMsavRup00jaXXYKFfXZ9rGFs7HEuhTeM1muyHNdhVrm1t6+CX5x1jV2PE5TuO+3VyvL3NJupbil8B69KnCsDT6NblQwrLGTtVy2iGd12+1yrtitsYUMa+Wp6k1FG+XK7+77g+XOMjXOzSrKrdFJleUs1PKqotxlIvekxmab/N/rTKEkDxdQaoNSeCn/tvAVx7Ka9m4TLhl7y/67ST+impT6Uik8ScMGvFZvCsKcIBg7hVwjfdpOIao2dZb0Yt+9gUmcpWIMROlgWzaGkTOE06b7R2Zi4AbLxWIzyKz09iiTf5BP5qbBUFlDnf7LOFRK6c1TjUGOpS3lyW8H0jpAObazGmrfuBIvuc9PAAzHRD+Q4vW0EacfSdvTRlyu/+3R58xfc2IdWOyOK5RjWecdqD2skvJ4AMJRHtkrGaX3ukfmdfpvu8RGVtL3jH1PyZZ6PkthbXPe5rjYBV2Z81xnYtnTRoEMnTc95a7KuVrudexkdXGrR7QvXuxn73kbs3rRjRkanfi6Z1Klx2VOu7C9Mrfc3Kyz74+UO4uWrtccR16to5M9fXCkviNzb1n74esWGxsX1pCWWcVZzPfldu9pozn/9qvVbCz3tXYRmlMYRl39d79+NOIUWkOvmiG/eQLsFHrzBs5Xz31z+U1/BWyOyd/40qLgljlL5fF9NX/S/f4b/gl3Sn+nsH/X6aZ8z8mG62r+HHw0deHzW3ILEmNkKe/HLLQ7+4VkokOBr1SnIFTelAcgGVu97hgQ7SBzm4jX/O85McewNnMMc2XqTE48EevvOT1/qY0s64doQ07t847+yhu38bX4trSd1Wj7suyv/LUyX5Ntk+sHXs7ONjLpR9J2OO68zHzRoc9Gt2jHkNTnP2tTLtS3Oe/o17D+fgT90+ujOdS7sGDrZMV9odVeReL33Q7KvDznim13inKfmJTKtA/Z35/Zvs+5le0Vcx6WuUEnRyaWvm6dbeTT9150lrsa5wa5V7GTDeWtGtVxJqdQlVNy1cLbMrOc6Y8c3Ka4H00VcyTWjVZbt1bfby13ptM734jGoWm2U1uO3b2czYsceinbOfeeeQ1etdjYuKiGtKP6bIrutJOx2C333L5xH/TzleL8Wbxsaim4M+5I/7VttEM/KulRJnwVvepk/a7JsFPItewn7hRipX783OxfVyIPs/Eyz4bBbL1zz7XdObNTQhw8/WUdNtL1wWXRr+nItCh0zqMrOZ5E2bGzR6b115yW05lfOnH+vpxEmUR2suHLCdKJ8lUjL3ZNpdL558vFMBtqEsPyEuX9I5nDBbKvY3SxTGsnjfeffHqtjWiyGSzmg7JGWK3UvoE8r7nR+gHrIg8+pQVFbxtRDdvSjrRRpz6LRRU5jHWZ833ftuTTOY3nfuAXP2YC4J5n3pS3sbKlzvKSE3Uu+1KwV3Pqsas1Zc733zE517BXtq4h57zMnTrpHKJBe0Y72GTfNfE20Ksx4q19fy6tnfOctvdqDTvZW/ZIOq8HX7kXRiMlrJfWyDo4R9J0o2Trtur7+XJHxjLLfA2dXNM+5+s764kmN8/LSnPvOZfaq14bS/mPpF1vTtjbRrWEtHhaP8qPZW7nv5xjJK61NZUmQ+2z0f6r6eN2c2Ct38v1Uyl8Pb2q5fsJ8bBT6BNaGXXclYA01LsKgsJBAARAoEAA9qoACMEnJMCfjhV2IZ6wZmuKjL6/Jk3kBQKvJYD++1re71gadgq5Vv3knULvqNhHqhMM9ZFaA7KAAAjkCMBe5egg7JQE3A7Eo382tjdb9P29WwDlg0A/AfTffnZIaQlgpxA0AQQ2JgBDvTFgZA8CILAaAdir1VAiIxA4FQH0/VM1F4QFgYAA+m+AAzcdBLBTyEHDTqEO7UGSKgIw1FWYEAkEQOAABGCvDtAIEAEEdiCAvr8DdBQJAisRQP9dCeQHZ4OdQh/c+Kj6xgTkwbzBQXPyMLWNZUD2IAACIFBDAPaqhhLigMD7EUDff782RY0+hwD67+e09cY1xU4hBxg7hTbWNGQPAiAAAiAAAiAAAiAAAiAAAiAAAiBwKALYKXSo5oAwIAACIAACIAACIAACIAACIAACIAACIPAaAtgp5Dhjp9BrFA6lgAAIgAAIgAAIgAAIgAAIgAAIgAAIHIMAdgodox0gBQiAAAiAAAiAAAiAAAiAAAiAAAiAAAi8lAB2Cjnc2Cn0Ur1DYSAAAiAAAiAAAiAAAiAAAiAAAiAAAjsTwE6hnRsAxYMACIAACIAACIAACIAACIAACIAACIDAHgSwU8hRx06hPdQPZYIACIAACIAACIAACIAACIAACIAACOxFADuF9iKPckEABEAABEAABEAABEAABEAABEAABEBgRwLYKeTgY6fQND2+L9Pl33W6/+2okSgaBEAABEAABHYigHFwJ/AoFgRAAARAICCA8SjAgZuNCWCn0MaA983+Od2/LtPl+1Elxvsan+d0+0cOr89zepn293X/vPpXKf5BIz1/rk5n6/vwQasCsToJWB24Tc/O9Psne06P7+t0DWzQZbp+Xafrz5a16i+3dRyEjd1fy/aQYMQ+j6Tdo67HLPM953Wv1Y1+O/lKnTijjV1L5tbx6JXtgrLejwB2Crk2fcedQnZwqd/5cybjYwxupbPLd9u/+3Q9606ov8d0+xJOgn+0sLpN99/nNNXWqzaeB3aei2AiFS1AL/9uU51b9Jj17dL1Y1YFUjUTeBiH9rYOlGahqhPYifFterx49+lIuUPj4BvbWNnosEkzjREWI2lnCfSrLfPWSxx/2iXzm/a5LhaNTWDKoPnRi+1zo5hh9I72fgXLUMjorkNmzmFoPOJMGn53Z9UgK6KuTwA7hdZnepAc3VuUVsfJQaQvidFluAYMc0meLcPZ4XH9vk9POXj/2Z1g5q17jbPrpPVvZWt5ndsRJOvcpesyA1yfmoCdFJ5Qn/eyN3uVS1q2Z9kv1HLYpBn2CIuRtLME+tWWeesljj/tkvlN+1wXi5YmOCu3Drk3Z1ni3iFzKcutwndntVXFkG8VAewUcpjebacQOxJuv1V6cLpIXYbrRIbZN8jvrXjOU/WbhDPW34Oov4BTqJ4VYp6AgOm3l40/t9qAg7FdOziz9iqXEH6Ije0afzdQsSNkOcJiJG2p7lvmXSq7N7xL5jftc10sWsDvaSdb5IzjdrT35ixjGeP7DpnjLF51vzurV1UU5agEsFNIxXL2h+4soa/7ic+iyLdBl+E6kWG2tXc7gUpnb9TWqzZeHv3hQ+EUOnwTQcBGAsbe/TvZ2UJ7LTr2Kpfa9ENsbNf426jzZ4k+wmIkbYnPlnmXyu4N75L5TftcF4sW8HvayRY547gd7b05y1jG+L5D5jiLV93vzupVFUU5KgHsFHJY3mqnkDFAdYfTGgMQnMFSPoPI7kxxhxb/2rNugoNEv67Tjc66Wfkf736yB0bzwdHK79ddL1kY5ufvbbrSIdxcdz6fR0/pnj6n+3d4rg+lp8+6Nvkm2wza5fbIiiwDRf3l4/T1c3r83NWzjGrq+/y9R4yvltUP7X7K7yAYSmsOaM7nn6ozlZs8uymVyDwfY/X4uYWH8X5d7XlR01Q4LL5PJ+O+5M+s+XsEOn79fmziWO5v3/b6rmWvXilzrGrcXq/c+dnVF4zNEnaV7Wv06/Utrmjv/WC5PeOgKmqHjR0ZU/p1UpU++5B10I+ZUZv656nx1+XepVdZyWoC97LP09Rv22vqFcY5YxsNyyz63CnmdaLJ+nWjfRw0xQ7ayWlq7Uf2TDxrG5Zz2XlspjFjGS5QzZeiveeHy6thvVpm2f+kUmYuYHQ8ah0XDsWKIeB3FwLYKbQL9m0L5Q7evIBoMVwmrpv8f9FBdbMTyAzM5Cwp7XAZwNDlzXb1M86gaLHLMqeZucEtquv0Z/96Aw1o6bR9FTXt+LXibq+W9nXOCHJ40WHWonXNXxMqDeD+k7bIOWgGK7OYSDttRtISaav/6fxTrUF/Jeli2jeKYQ75Judf+rhq0sc+VuRUtWnleVFPV+bli5xUKQfvGjo5H2Rs+4B16Nr2bvvrhRG15G1/+w7Ud9Be7SKzJMjyZ3RQRh+9HukLvmyzAGnvhz5978VouY12MhCzKe2APk/T1K+TgcRdN13jr5G538Z2CeoS7Wafu237SG1t2rO1EUndJbPrc2eZ19nW2Xvcn6apw05296OSXSyFy+7QEtel69IrWebodYfMvsjGtKPjwu6sfMVxsQcB7BRy1N9pp5A3CvJQ4hrtajE+Ju5lokXr7DCYC+ldmM855K+6DFe3zBWLYzPAVr7pyFfNh5p2LLx19ZFrLlrat5Bfnr9d7CSdZNnJyEhaK3SP7pUdcJWf8inccqwoLO08dXpHTrSFM2AtnXQLUypDc4hN0iGoVK75UW/7Dta3u+9TBXeSOWDr2mlNexDkP9+s1hey/Xwub/Wr0XJH7GR12kF97tbJdWjnbFqqhNX0KlVA5/NcXfrts3Vw9Nn2zopEyXL1iqL6273bqEdm+8lmz1x0tA96bM0X/Xq1osyjdjKqdbbtSnaxFC7Laonr0mVlk3lvdd0hsxelKW3vXMWX1ueYnZPj6uQEsFPo5A2oiW8MYOHzHC1d03kIJUNVClcFqH/YZeRLMqXCzeBZdvgYJ85i8V5fpzjmkZ1Cpbqy7E+xgyyuX+p+JC3laSa2TfpfGEhZ0M5JVJJVTX5GJxWn0Go6OTsbNOcuV33N3672Ha1vqm9zxQrhu8jMsplf105Neh1kUHmzYl+o0e9KqZqijZZb0IWsLLVpR/WZdwrRS5kOG5utQ0Vg+/i7ol5VyNcSZTv7XNglZ3RFse0twmfinrGN2mWuOMcr1SdX6IMZ/OmgGvuU0o01Za6RI12LRUiyH1HMVBtwLqVwjleTl4zrrrv0Ssmn+1FL/eJCGtN2zVVEmbuzErLg8vUEsFPIMX+nnUKmU/csHlqMTyluKXxQ17sMV0mmRHj57ZmrzBaD7Jo7AxL1SzYF/cn772t41g19FvjlnhUcYMvv++lModt0r9jBNpS29Uyh6nbLLGw6WGUnUaJRNF1fTydtndJvtIUgK162tu9wfUu6XwonZ+PiHLK8Pg/LHPC27VQ6iytI0nOzRl/gcqvz4gQr/Y6WW6ELSUkr066lG606mZS7MUCzSdksqtskY2OzBRQCX2yfR2x7oSbVwadro8HPx5LzikSfXKsPVjeIiziiG6vKXN0nRQ07+pFJnWgDn3Mp3EescDDJuO66uS8oeQw9aqlfXFBH2pFxYXdWcf1x/1IC2Cn0UtyvKcx0ajiFlrBLxjURbgbx1KGai+flHUVLwfQnPAHQQzueJuqn5mTi8iHa4R4SejPdO3DwWTk9TojatIZbRv8Xk7LqyVFiwdLJaiGH2hD6OQvr6eQ+TiGtqrn2Ha5vSfdL4ZrA5Cji86aU89OGZQ7KhFMowJG7qe7PiUw6dcHkVpl2Xd0I65HTyTBm/12z/a9uk4SN7RfV7VJoH8tMGxVefJBYGouRtCNVlWk1uWT44nrPNnLCNMtM6Up9LhG+ZR9csBUPRnRjVZmr29sJbzi29yOTOtEGHksp3EesaG8Z11136ZWST/ejlvrFhYykFXnVjgu7sxIy4/L1BLBTyDF/p51CduDocE60GJ9S3FL4oK53Ga6STIlwds6ErpHBCtQkN4N2Rzum8k7Ubxm97PSpndgs8+ZB/dJ3MLepQz7ta51C/axqGWq6vp5OHscpZHQl0b7D9S3pfilcVWT3cCuZgzKdU2jNnYNB/u6meqFQsXivzksTZODZaLnDulC22cP6XMKT0MlSstpwzSZl01a3SYVeZQuKA/exzyO2Pa5B7/152miuYbPMlLTUXxPhm/fBuVrB1YhurCpzdZ8k8fv7kal8og08mFK4j1jR3jKuu+7SKyWf7kct9YsLGUmr5pWfP+/OKpYZ9y8lgJ1CL8X9msLMwPEv3/FVSVqMTyluKVwVoP5hl+EqyZQKTz2vF7c7Jk0gyrtqygO2EaC2HhXxaic2qYp3tZ/LrJTW6n/6PIel7JULEW0SNcJKyy8GZvJXzp2oKDfOSr+3dS/rmJ56i6dq+47Wt5S+FF6o6CYyyzKNfIoeyDirXA/0hbj8Gv2O06xxP1ruiC7Upq2NN8BD1cmB/GTS9rxX1CspSOm6gvNyPHCZ1uiRyV/plyNpS3WqDD9NG4n6tMtc4SRI6UDquZBnk8sR3VhT5ho5GEBFucl+RHmU0pfCWY6avGRcd92lV0o+3Y9a6hcXMpI2ziuxs1FG252VFAbXLyeAnUIO+TvtFLIGWJmolNSrxfiU4pbCS7IUwrMDUCptSaZMuCkv8ZfWfHE8yFacmePTFC9Kk+nn/KeJS+Vm6heKkS+TnY7Lv4hlc2FWYZ7yzuavOSJG0nIJ7U4hdzh1tn2t420p8xgrGoCXefqa2E8T1L8+5v4kdVZm8Wdnk7qRbguWYs3fkfbltNkde6k+WNL9TDiXm+aQZshpu2QWBXKfS/5FPxF39NKUldWrVF+ISua2iB5vfjtabkYXirI3pB3RDU6blietk+k09SGm/IpPq2SOq+mVzLR4vZ99HrHtxWpVRDhPG82V6ZF5xOHA/WjUPs81qLsa0Y3VZG6yk2P9qNRGdnwr77A0dBtsLLdGl15x4jV+O2T2xTakZd3waRcX5XFhmNXvfT6HlP6i7UIGPDgyAewUOnLrdMvmdo5kJ/ZK5g3Gp2Tki+FK8U2PzIBGC2phcv6e0/P3Pt2+rtPl33V6xAvhUv0K4Y/vq/mz3fff8M9007e6dCAzlXlTzhZpqpcW2ZxbcjV1lZMX/kaYyk0esijzK9RPRjUDA+X7G5Q4MYPbV9rpaNPSgdS36RH/ZRw+jyihmyNpWX47wUgPRqlBj+sWy8ycr4lF0Agr8+fOyTH0TX9FiGswn1Vz+SJ9zrEe1cnyJGGWavxqtH25jZr7YEn3M+G7ySxwm7d3/26T7I0iePVL5tzaFwJBmhYdQcqxm9FyM7pQFKwxLXNu1edRnSzWoxShZ/w1fzHN2qshvSrJFoXvZ58fxnb32vaoGu23J2ojX7kemUt9rhDe2we9zF0XY7qxisyNdnKsH7mXWN+PYAzzcyvzx0vWn8f6punRK594hYuCDmZLaEi7yrgwyIpluLjzVl/xIivLD4FNBLBTyOF6q51C/s9y5z4hc46jxUHJl4k78/wrF9h2ETmHUXwZ7oy/zHejczCsAyiUlxwR959w4DELbymPuZYyl+vEvWp2Oolyv8gZFJfJKdb7ffzcpis5CHxd6K8fpcrtbd9ZXlOeL+syXVw9KYY0/PFOFxNGcjlnWSCzyGMuab7qTWsdQZJN4Trh4NHa1+hU4Byb5eWrXla59OyQsw4BWx9tgNVk5rbSnQiaviu8EoxY5p7f3vaVZbXVV6ur7PuhLpu+Fdmr18ssa8tb73M7yqL4K91qnEt9obYfano8InZ/uSN2ciTtXFuNc77/igVWh42dSx67snKHdkMff8NytPqW9CrMof1uT/uslV1r29trGqY4Uxux5PUyl2x7KZxLpL8syS8ThT6/YF43ohs9MvfbSctKk5fmvvTPjJNuvhjPCW1q+9ds5/mreHFoHB+OfTD+rmNjqfx6vbLS9v9/ROaRtOuNC0OsgrYM51r9TJHyVQSwU+hVpF9eznO6kYHeYGH38qqgQBAAARD4UAJ2so3J1Yc2P6oNAiAAAiAAAiAAApsTwE4hh/jddgpRtexbgcotmZurGgoAARAAARBoIuDeuulvXptyQmQQAAEQAAEQAAEQAAEQUAlgp5CK5V0euq2I2C30Lg2KeoAACHwQAevYf91ZQh+EFlUFARAAARAAARAAARBwBLBTyIF4x51C0HIQAAEQAAEQAAEQAAEQAAEQAAEQAAEQSBHATqEUGTwHARAAARAAARAAARAAARAAARAAARAAgTcmgJ1CrnGxU+iNtRxVAwEQAAEQAAEQAAEQAAEQAAEQAAEQWBDATqEFEjwAARAAARAAARAAARAAARAAARAAARAAgfcngJ1Cro2xU+j9lR01BAEQAAEQAAEQAAEQAAEQAAEQAAEQmAlgp9DMAlcgAAIgAAIgAAIgAAIgAAIgAAIgAAIg8DEEsFPINTV2Cn2MzqOiIAACIAACIAACIAACIAACIAACIAAC0zRhpxDUAARAAARAAARAAARAAARAAARAAARAAAQ+kAB2CrlGx06hD9R+VBkEQAAEQAAEQAAEQAAEQAAEQAAEPpgAdgp9cOOj6iAAAiAAAiAAAiAAAiAAAiAAAiAAAp9LADuFXNtjp9DndgLUvEzg8X2ZLv+u0/2vHBcx3oHAY7r9u0zXn+c7VKaiDu9d3/fov+/dRhVKiiibEIBebYIVmb6EwHvY9pegQiEgAAIFAtgpVACE4M8g8Py5Tpd/5Pi4TJfvx2dUuqGWmHg0wHphVNsuTm+/7qbkQJf/3aYebbZ5fI4T8Bz1fU6P7+t0ZTvlfq9f16Lz7h367zna6IWdv7OowD5grJtW16vf2zyXcDa5s6mQbJpc+2BullKGd7Dtqbp96vP7l9N3P9bXz8W2mhN+alt8Wr2xU8i1OHYKfZrq6/U1xhgT5QWcV0880A6LJlAfqAu84UXJ0+wS+hzn6DnqayeKt+nRsVvv1f1XVdahh+doo6EqvjgxbCwB306vTJ+DU2g1rYa+6ihfbdvRDno7bPb07z5dG3bpbzMn3Kx2yPhgBLBT6GANAnH2JYABb1/+XDragUnkf+UEwH/qZSYR/W9WV39znq/C7qGnqG/jxHB3qCsLcIo2WrnOW2cHG8u7UOrfwre0CZxCLbTKcaGvZUaviIF2eAVlUUbj2L/FnFBIg8s3J4CdQq6BsVPozTW9snoY8CpBbRwN7VAJWOwKuv26NMIp5B1FldnRm/PPYn+S+pp27vsUsLrpDxvxJG10WH66YJ/VzzUG2+oVnEIa8/5n0Nd+dmumRDusSbMir0an0LT6nLBCRkR5GwLYKfQ2TYmKrEEAA94aFMfzQDtUMvQOIPm22x6cSudjeUdRZXZ2QiHzqk140nhmAnWC+n6yU+gsbXSyLvDxNnZjvYJTaN0O8fH6ui7O7tzQDt3o+hK2OoXWnhP2SY1UJyWAnUKu4c69U+g53b/FQcl8AOn3vev8iXpdXh58ev1yZ154w0SfsRzrDffj5xYe1vp1ne6/9q8s5Qe8Mc7P3/t0lQfI0QGx1EY/dDBlgdGfLTs8ZNalp3yVb47lNlJyEPhdI3+PQF+u349J+xtThoU/6I7asbB4NpNs99mSP/T4Ftb5H8mslxfL6w/+DmS4TJfCOQ3E+fYV9gfSS25jTb/jsltZUYf5phwAACAASURBVJ5D7asJVfPM97NQf2zbFdprkX/jm/MOneQiW9rInpng9O/3Md18H7pON9Nvw35J+lX3L1/f4XJlfyAdVuSay7D9JnDixenjfuDuva5GlW7uvy59T1+Y60G29APaSLZNh62bm+o5PX50e1V1dtRAH1yOdbMzmW2vrlsjMo/MGcJ+7mXsmuds3PenaTJ9gnXDjElubDT9Nj0OSt3on9e1t9GyD0eH2n+xvZ0lXPsKczPMzWKd6hmP4jya76V9N/1Vzq+WdpLH7WUf4j7PfSe0YVVzlW6nkJR5sjvAS3P4ZlBI8G4EsFPo9C3qDJRxxoil/Z+dfNFCng3WulW1E39yajzFwafPX3K4XKfbj+6oWFeG1twSMv+5RcwXTc71xds0jXG2g8XsfGLJjSNhMehwqPv1TB8B64na2Du4cg4AKztN8H37/D6dIyg/OfaSNAxMPBm2v7EzhvUyf2DucsHiJcle0F9nurBjUsZ0bVwehPtYtbev4+4W9rzAyf5+3RXnnTsoNXKUWXluSnwJJbp2E6EqezGgk11t5J1fF+NUJMntZPFqnY7EhuyQi1dbB+KdjTtabk2/qYlj2iac5EWtl7+tKWORQ2NfGGW1KH+aeCv8Udto1NaRnaMxlBzW8+jNNjJn0y0bO9b2jQuqjaU2VO3M3Dj9MifGX29LcnOGsfF3lt5d1di6QX2edYNeUIRj/9PPOVLj4Fh9u9tI1NmOo0IrTTuJl0sLqCMPErrhOWFulqRr2qxgK1ziWSfp5dpnzM2S3IoBbvxTXubQZ/Y8x1q8ghJ9iOebQ3OVhva1VVpxTlhkhAjvRgA7hVyLnnOnUMWC3kx+6gaMFuVWJ5ScgTeK65fLRfT8monSzzzJCfMQi/TFIDDK2Q4uyYVNbsHnWCbTUiWKg4abYJIDQnOYTHJBElLxd8UyfEw3WNodPUnaP+S80ZwcNp+sfs1FBVdm4M3kyefl6G+/OaseVgPty8Xu/ut0PHIuqWIN6GR3G7kyw902rq2iNjeTtUUfjmtSWd8Vyi3JUwo3kudsRFw17b6h/87JG/vCCqzmsunq+G1kFwZjti6s83yXtYGO9ci4EOdvXhhEfWmWpu4qzlOmyoWxM1ffjTo6/kop6Po1euV1I7ML2MRZMF+7vmH9q9phIZPNwy5uB5zToSj+jmRKj8uOB81fFnZ9lNXA2L1CH/QvGzE3MztZ0jpAqtI4HnntGrggpyTtso/0zvbthEN37XHQ5HestdQAUSQ9OAHsFDp4A2XFq3T4GAMWGbVsvqXAinLZM34Xu4hK2W4aXrOoUo05v60uG+UcZz/5+0u5SfTa5/LUU2hP3WCamOhpKRbPGgYmI3Nxm6p9m5Fa1GQnrgvh6EFhcsdpinrQx6q3fVms3X8Nl8KuGSdkv04OtJGqfza/eCJZJV9tfdcoV82DW3yACWdR85uVIZVBY19Qy3jvNlrD1iXpf2uLYBu7SsdTGbvn0sbSeF3aIVTIzgQn5TL9LT+GJucMFWmp8GTZseAv6vt1uqH0/7XrG9U/y0ntwyKDUriIWn1p6ltwNJlylf6wAivDg+ZGmJu5JnuvuVm1HqYiRo4h268TDiHKQ+0jA+Ogml9KWDwHgTEC2Cnk+J1xp5CZRNUs9GsG3QY94nKzSSoH62weKwZmJ0KiHDlR5sdc36I7p8DZvonlb4zp7TKdK3Cb0o4zOzjHi16Wq/5XH5Dq06cGOj0HP8nSg/3TXJto7eATahf/3965s9pxZH97fxSjdMChYE6gT+BgmESpguEkBiWOJlMi5GTgMBgcKJ3AwTFMdAL/MTMI3lAoeVGi4GQvM5g/QhiMMYZ6qepeXauqV1VXX/Y++/IcOPTefanLs1Zd+rdXV0+wj5cYk/B4cBCXljCfb98k4wf9Eni39CVuhU+usZE5MbL9uuZXArm5vhvlWyqT9C1SruK2mV0hBbMehXOH3Tbf4XD+wczDTqPEQyd5CjYK9WhoN8X6mmsC7dyVHxvMyAhPaEUbVICljw2Pc/rHwNWx6scFZW7y8+DjY+FIrp0sX2MbOZRftfqG2EGYb1LfBTYK+ZttWEpWmwd07XznfXbyPxWAim1DZes/5pz8vk1Y+XT8o3HDWnXMzWo2seyQmSr92tgup3/Ys8eSNLM9fRNhKPjIVX2tVrMN2WWvcR5qYqY3HOUDBDYlQKTQpjgPm1joUCYHYBmkx5OtpaUN+U49ZnJkHVlT51uYeOyTs6wtYIsQ3UBSiqZpt589ILVfX5sMjlNp8o+JX3bPZeJRtq8KiW9tww03n2NrNOwJk7a2KKHpiVslvzWTQ7M/sf16sq3Pqe9W+Zrp1H+RTUg2s0uuil/M/ONh+5PN1z631EfYaZyLjVb1dcEm3ZpCd1mUgo9aKPeBHdO140JI3z8aERblb5wfLCxzE6eCj4ZrW/vIqQjVA7b9pjob4+Dq+i60UWjXBRsMbX7q+HBi+4dQ34ZIdqs9rGZVKWZ57PYXbdMGJR17/lcpnD40wyZLfVJnZ9lBHx99bh67ppjaY8kovz3tEF/LHyUbZWfawy57k++b6Y1yZQcENiFApFCP8awjhTZxlZiI/DoT9xifwkDQONE0Lt96V1PnWxCFpL6Tv1QuLXTo9K2bcnsgmZ/NBunMGJhk4jHFq2aTs5p4FO0735L7uKLVXl3eK3xpzeTQ9D+7LDW/8nWYVd+N89WT/1n9SjO7goeY9SicO+y2+Q6H8w9mHnYa52KjVl8a17cm+nRgx9cIcJupHG3d6j42+OKUoCJr8VRu4EtlFl+vlq0wZ5Brp8aTatr9wVZ7hdNX+nNrXjmzdfVd41clYVeRNZmo4ws+5vUvJaH9Vc5Zx0pSqWxDfZmbaUKWHfTx0efmsavr18pi9zb93qh8DTtCNGVYLP4uRHDqcXx0udlG7LI3+b6Z3ihXdkBgEwJECm2C8YESeajOojB50xRCZzc5ydRX7Plzy8DUTwBGixkegHNpoG0aNCbR2QPS5GX6hBkM2mxfj5Io8dBFSj9PTSj6syf9YANWacHCt/n1MRLZx67e58sTsXGmy31yhY1M/7NtVS3f3Ppula/HGNKSRye6m7fq5FKjn/RbfbLx2ayHcV6yy+abnKK/mHnYaZyLjRb3dSYrDbO+Rk6VX5pM8VveJ3U3PnPXykiTL5ZrzZyhgVVaisK3kI51g187P/9hq92f23yjSy/pf9fUt+Haoo08hqnrp44XUFZ3t/RtIV9jTaF9lCcrbN5O5HCVo5w0ubX9afIyfcIMBm0+eVlzM43S+hyER30v89OEMGTaw7Zzkw+Z6VklZR8E1hMgUqhneIqRQr7ooVOZeqxEBt3aos/v/etg+0fN/BuqJnyrNFCGy0In5tPKJ1RGojPzNVJo3uXLXL4J639h8wyMX0LXcJZrywW1B4xwfs8ymTSOEpr6dbCS/iitwo4ZA1Oor+dY8cupX/hCGoYdCqULu6fSlLfOlH3AJzOf1Sr71ip0gGNS9lm/wq/wycU2Mv3PtlXNd2bXd6N8xZRDH9T3yc3cpQ+XhOZuzXpMJWLzLV5l5mGncS42CvVY1Nd1XEr9encjYo9FgX9gPSVw1McFawzv6lMa/9eV2cpv8KW+PqU5Q1O7lTZSmOc0pTEUqCSQtPvz4Buz3z62Zl63zkYPIgr1EdrlcZm5mXbL0Wez3x2dFXYMPnkhc7OEwoJ7ja4fNu5j+v7K9FnTHu39RlJm/8VMb3QWOyCwCQEihTbB+LCJhF/4vr12N+/TV4v7Z6Jvvr8K4sx18VXsXdmHwaIXhkqT1VjTO3ftRZbv75IFKsOCfS927vqNF5mMzjQmED7NzzdLYNZXKbN/00S8UJ4d9yKGr5MlCvmzl3KWOl6F18Fnt4GydkRtkA6T3St3/SaV6vy6E75MXsy7qi4Uag9IkUDDpxkDU6ivr0947XznlzGHrsy7KeEx1NmLeKrOP31wH957G3U+fadsKOmLjcZrdIjtVXpyUbKdz2qtfZPsD/mlNrGZKIdv5/4GbolPLrKR6X+2rYI9LEFxSX23yFez7Ln5RU3NCaU+V38O15Vu1vWJhc9mPQrnDrttvsPh/IOZh53GudhoTV/X9RtXYdyOKGP/WBuL/Plr2qC/3hZp+hvwwni0rsyxD9ajYOucQfqNRfOcB2j74huh3H4u9F7V2i9c6+calXFwaX1X2chsw9E793eDKr7B3EzRbvs4ZTOVivjkpczNVNW7H9D7+5udv0d5r4+OPxcFITm11KeY9pg5Dkoefmump0/gMwS2I0CkUM/yVCOFxBXizbIsLN29QcHftKmpiJw+3vYdnO8saxOV9MIoSoTrwqKVffh5a0e2KN+0FHO/3b25jlFRob5xwhYmyhVhbAnnMBB78awX6fK3XOQ31mZ95Fo1qPmbci8G5QJId303CIldilvr5lnWjkjyUn6V7B/fqMrEw5ej46Wv9WVu88nxtX5R1Gt3M+HTlo3CdXpSnkBewyo+5rHKvkl5DvOlu3m4busfrCLN9smYyBwbdeVUPjQscq/tFv1Qn68nfnPrq9Pp+sWbvgLz8o217j51fUwsb35cvneTUlXvpN3F/bqO3bXql/XCNbE/yMuh6xbziOf3+7J+YytWp2ajUN7eH8f91XRfZ41FMh5opkUBcUEbTPwqs2NyrPed3L/WlXndnMHqN/xbPKfmOQf1q++9YN63k4pvTJXZt+XF9TXmOHW/stp92jdof0z7Q+mx1m8t3xIxjblZ8IhOzBX/qm5T+/mr1/ZXYuFxX3ecczMpb9g232tY46dmabSVb7u3N5bbiL4mpqXP7/pZK+/SOBzTSerJFwisIECk0Ap4XFoh0CoKVZLg0GkS0BOP06zBBZS6nyAVbzbPDcER1dff3FwM9zl+dII2oq+bY+CJc/c1Zzgiv5ogwGEI7JUA/dVe8ZI4BE6eAJFCvQlPPVLo6Dyxf0zixnjE5+jKSoE2JcDEY1Oce0msiwi4nF+ajqa++7rx3YuXHDbRU7QRfd2GPrKnOcPR+NWGqEgKAksI0F8tocY1ELgcAkQKXY6tD1rTMBEbHvM4aNZk9sAEmHg8sAHI/mgJhLaRPbJztIW90ILNsRF93XZOwpxhO5akBAGLAP2VRYV9EICAECBSqCdBpJC4xNrtB3fnFxh+ceWshYDXps71x0+Aicfx24gSPgABooQeAPrMLGfaiL5uJl/zdOYMJhZ2QmBjAvRXGwMlOQicGQEihc7MoIetjl48LS6GFt6ExWNjhzXFMeQWwv+jHwyLbVZeyXsMxaYMENgLgWJ78G1k+s2MeykTiaYEltqoeN3lPJKZgmz9xpyhlRTnQWAzAvRXm6EkIQicMwEihXrrEil0zm5O3SAAAQhAAAIQgAAEIAABCEAAAhDICRAplBPhOwQgAAEIQAACEIAABCAAAQhAAAIQuAACRAr1RiZS6AK8nSpCAAIQgAAEIAABCEAAAhCAAAQgMBAgUmhAwQcIQAACEIAABCAAAQhAAAIQgAAEIHA5BIgUuhxbU1MIQAACEIAABCAAAQhAAAIQgAAEIDAQIFJoQMEHCEAAAhCAAAQgAAEIQAACEIAABCBwOQSIFLocW1NTCEAAAhCAAAQgAAEIQAACEIAABCAwECBSaEDBBwhAAAIQgAAEIAABCEAAAhCAAAQgcDkEiBS6HFtTUwhAAAIQgAAEIAABCEAAAhCAAAQgMBAgUmhAwQcIQAACEIAABCAAAQhAAAIQgAAEIHA5BIgUuhxbU1MIQAACEIAABCAAAQhAAAIQgAAEIDAQIFJIUPx0465e7NzV93fug+xjCwEIQAACEIAABCAAAQhAAAIQgAAEzpQAkUKJYT+4u++v3O7Flbt+jzSUoOELBCAAAQhAAAIQgAAEIAABCEAAAmdFgEghy5w/fXA3Xhz69trdIA5ZhNgHAQhAAAIQgAAEIAABCEAAAhCAwIkTIFKoYsAP72/c9bf+kbIb9+GnyokcggAEIAABCEAAAhCAAAQgAAEIQAACJ0aASKEGg929uXZX/pGyN3cNZ3MKBCAAAQhAAAIQgAAEIAABCEAAAhA4fgJECrXaiEfKWklxHgQgAAEIQAACEIAABCAAAQhAAAInQIBIoZlG+vDGL0S9c1dveEvZTHScDgEIQAACEIAABCAAAQhAAAIQgMAREdi9ePHCyf9xlOvOXb/YBeHFiy/1/2uXPtC15tqJ2hMpNAGIwxCAAAQgAAEIQAACEIAABCAAAQicEgEihRqsxZpCDZA4BQIQgAAEIAABCEAAAhCAAAQgAIGTIsCaQhVz+bePXfH2sQohDkEAAhCAAAQgAAEIQAACEIAABCBwqgSIFLIs99NdeBX97ttrd/P+g3UG+yAAAQhAAAIQgAAEIAABCEAAAhCAwEkTIFIoMd8Hd/e9X0j6yl0jBiVk+AIBCEAAAhCAAAQgAAEIQAACEIDAeREgUkjs6R8V828V+563igkSthCAAAQgAAEIQAACEIAABCAAAQicLwEihZRteVBMweAjBCAAAQhAAAIQgAAEIAABCEAAAmdNgEihszYvlYMABCAAAQhAAAIQgAAEIAABCEAAAjYBIoVsLuyFAAQgAAEIQAACEIAABCAAAQhAAAJnTYBIobM2L5WDAAQgAAEIQAACEIAABCAAAQhAAAI2ASKFbC7shQAEIAABCEAAAhCAAAQgAAEIQAACZ02ASKGzNi+VgwAEIAABCEAAAhCAAAQgAAEIQAACNgEihWwu7IUABCAAAQhAAAIQgAAEIAABCEAAAmdNgEihszYvlYMABCAAAQhAAAIQgAAEIAABCEAAAjYBIoVsLuyFAAQgAAEIQAACEIAABCAAAQhAAAJnTcCMFPrPf5zjHwb4AD6AD+AD+AA+gA/gA/gAPoAP4APn7AMvdtj3nO1L3ab924wUekhw//d/nOMfBtoHtvDH//3ft45/GOAD+AA+gA/gA/gAPoAP4AP4gPYBLwrp73zGP7bwgS3uYQ+VxlFFCnkh4F9/4x8GqQ94v1jTIHyj/vTpNf8wwAfwAXwAH8AH8AF8AB/AB/CBxAe8KMS9AvdKW/uAvwddcw97yGuPKlIIUSgVQxCHOh6IQnTSW3fSpIdP4QP4AD6AD+AD+AA+gA94H0AUwg/20ReclCjkV0z673//GxZOku0hVSmdF6IQopAlhCEK0VHvo6MmTfwKH8AH8AF8AB/AB/ABfABRCB/YRz9wUqKQCEGy9eqQFmoO+fnYRKGv/+jcbufcl39FrLHEmkPtQxSio95HR02a+BU+gA/gA/gAPoAP4AP4AKIQPrCPfuCkRCEihcqCD6JQmc2hBCGfz7GIQr8+3nUqoVcKw/8j9+s7OtF9dKKkiV+dsg+8ffUxhKL7SWb3f+/esn7DUa7XcH97774Z7CT2cu7F43fufobN7pXNv3l1e5R1PXibevduxPa7W/q2g9thhh9TtsP65+p+492P7odnH0ft7JvHH903z95d9Lgzt28/NlFotW/Q7o9iHD4pUUgihGR7ypFC//hTds8u9+799uuZi1gfWhT68jPndn88DiHmkKLPVF7HIgolk6V3T93vuzMUhW6fqEb0xP2SDyrJcWlgZ8ghr/fE97fP4s3kcEN4ex+FgWc/HsXglPjwRJ04d/nNAaLQcnafREg4UJuZe+NQahdM4A2biy2V6IYoZHDaR19siAXfPL53P9z+6H547NyLA7WvUns52f3vfnTfKX+Owr8xB2iw66p+w2hfaXk+uh8u+IfLuX37alHomHyjwffMNig+Rf9QnbPPmfOflCh0qpFCU4KNCERzhaApgWKfxxGFbEEMUehAk0g1iPz86lEnDj17XuwYQ+RU5bg54Kg8zum4ntgNNz0yuO6cG4SiM63/Odlyy7pEvyBSqJXrwzK77W6Y/U3fzEih1vpd5HmqLxz6R/rC4ti61kf8zXAqDkTBIu6nT1rEeeMb/0Vl6NtOvDG9d28vWPxpYzjdtx+bKNRWr23vDx52/N22LvvkFzk5N4xpapzTc/6TEoUkQki2xx4p9I+/OPeHnXN/+KNz/6hE/iAK2QLLPkWtfaWNKHT4jjKIQo8fVaOhEIWUXYZJuPplrjBA7HOgIm1lkyO46YwTB27AWn3zYZlN3zi01oPzVFtUfeEwgT6C9nmWNlKsvbAZxYJbl0Yw0iett3+MGtI3gevTVW2n2E4eMu+W8h3bOdN9+2pRKLHVadrnYcffY/OZSnlmzPlPShQ6lUghLwZ98VkvBjUs/IwohCgki6T7Brn5IH2uj4/1g1onCj11wzYZ7LqOElFIDRjDRFxPtOOkgBshxcrwpc3b55HkwQRrvt0fltn0jcO5+upe6zX0j+pX1SNpo3ut9wPUMYkeMfKfOn5uPPZbnzjGIwrN7+v3a5u8PNN9O6LQa/ew429usyP+Poxp03P+kxKFJEJItkcXKfRX5770bwH7zLkv/9IudCwVhcIjXLJUSr+d8/axEMnk1waSNHoh6+t+vaP8cTYp53C+XJdvP6vXPTDKrvHRVF8XBDR5/M7n67kGwU1f/5lzXzTwnpuvjybK6/yHP/V1E1v35ZBosM0jhd69dL8+81EwusKP3O/PnrpfbhvXCpotCr10v7x66n573D+W1ef9++Mn7peGsN+ffbn0Qtc+iseX95VfA8hY+0dNBpdcK2LQp0/P3W+7nfvNWBy0LgrNq+8vz8QWj9yvt8/db0NdH7nfbl+6T586m0nD+r342Fp6Xjz/aRPnxZMUGSCSR05kEqKih5RddF73t+/cd4/TxYm79R8KC9b6EHa/LkSytoEMTv4XYbV47uNCaLmx5sSLxx/dd7LmhE772Y+zFt3VdUs+v3vnvnt278IimDp9/4hdKGdWX+Gqzv3utq9fUn+/qOaP7r7Ulubma9jpvsCry7dbUDe/MdATrB9GNu7LbOQVmd26sC5CUteO1Q+3t9vYpJD/kvr69YBm2XfIu1/nRNk59W3l60kb6yeNi/PNJ53SZtseH5u7ZkWw6+jxE7/OS97+J3xjs/rm9R9/T6NLnPvm2b3qez66715lZffr1uTtULXj714taL/BTxa2hSWstrBRUua0b3+x+zj0gXmfEdv+2BYtxwbRx2onvkz9wuq+37LTW8B5yXg0Yixt/KP7QeYbym/S/iAfUw9U5qG/EtssE4UW9Ru9Pw32neorfZTYqLy+3AtYqXTax4VbZ5ZV+2XBB755NfbN9nzFNvl2um8fi0JrWB3aN6S+UuY5fc7K8bf3zVlzlZHtF4yDS/L11yzpr1Qb6Mbx/iUK2p8/iY+l/dNJiULHHCnkhRT/qNgXIhpUHhfLH10S4SEXYfLzqt//2uXfKgqJ0JKLV/LIm9cBauVZuqbQF/5++rNMAPqrc1KeorjT1y/oE9n1UuZBsDHYL85XpeXT8HlIfr6s8lig8NhUFLp9Eh6J+u3Vc/eznri+8yKGP+ZhNiycPFMU8gKKF3F+vX3pfh46l5ful2deJKrn1wkmXizx4oh0/K9dEHtCecui0NJroyjkJ5G28FQThRbVNzDtxCERfUI5do86Qezx085m/XljoaoTsFwQ2hQrb9ue8/ial+7V453b7Wb8P37q3ik7dDbpJwDJAPG6nxSJWBNtF+0og4hMiI1tlmY3IJVEIWu/TzMdpIqT0tJEcyNR6O2zfKIyrm9yk1S8KRhf1900eFFrzHl2vol9/eR2utwh/8xWURQqldfvL/hHU91Tu0a/GjNoP7a8vi2cEvsOnNdNSpfnm3NS7TGzpcWv2I5q144mw/N9Y7v65vUff89FofTmvFT2zC+bfNmn5dtvJgx7H2m6Psuz961FrDaw0adPpb44Y1bzlaF9jO1i+aPfp/sc//apolBupb2Uc/Emq8TACz/xpjn1qZmi0CHLrOeMgV+sg92v2XZb1G+E/ApCizVuW6LQUlZD3nPGwUJZtb8X2lkqCi0fj9I2Mt23ez8crlnFytv90L7R55n9gJS2rb7v0Tbo/TgsPm/5Ub5vdO3C/rlge7O8W8+RlvRXpbaf8eiE0HROd1KikEQIyfYYIoW8QDDnUTFL2HkIUcgLHEUB5i9d9NDWopAIJxaDsK/P1xS2RBT6LAoxOp0aw1X5ZqKQJUpJObxAtJkoVBQT1MDdKva0nhc6XJW+8b0mrtQidcLgVRBsuoGtHOUzdW0iCn167awyWvuGAdWopxwrXtfbxyVRQCL0PFVi2msXxK7kvJdmGSXPWN+6AJecX6nD+Lx+wpH9+hom6NmgEa9Vk5SwGLWOxsnWfyimkd4EyIAaXkXrBzEZ/HS00PAstI+G0FFEWZ5+MlDJN9aj7t9t5+kJZDqghutHE7T05vHeRwMMkyH75tAux0S+n0TY6yZTZjSSLlvGK7lByyOh9KQo85vkJji8MUjfKPe/BA6TtTn1nbaV/nV3bn1txj7Pac5ybWRm+MGsNjkv3y5/1SYzW0r5ytt518Z6+ugbvfZL327FvrlvVBm0cy7Xw/KReIMTBOYg3Oh9/rEw76NxX3KTrNtIqJe/8Vc+Lf1UX+dE2NXXbtoWplmtsVG8Nqurt5+POuz7q/QG2GI/d1+0gYwHfhsiT1/pMSZLdyPOsd5R/Br8W+ycjTvCwhbIK+3qwcos7CLrxN+rbVSulW2lftV0Zua9ktXicUHNN0qMYtrjsSwe8/2kEQ2c1OtdJXp2mrNvJ6FfTNL0ESyqr5JIK+mfsx/cYr860z6mrafLHPPTc8HlfU5sv43j70pWMb+Z4+DKfIWbzl/6y3p/lbXbbHwO6WVzh5MShY4tUkges6pFqIhgUNvWBI3adcmxJZFCXmApPLKVpK2EEdk/KbTk19QEH3VuiBiyXnU/Vb/S8bX5qrJJtJFEBwkLvd1KFBoLCdK4F2w3FIWmyhWOhygZFf1iDiDjeiy9NheFPhn1LYo7E2Ur1tfIQ0Sx31+ldR+lEcSxacFndN1EKQvgPAAAGqpJREFUWWXg2MtWTZbMX8d92ZJzxvb15UoHNf84h57A5NeoSUbh15ckvWxw2wsHscFQ1/HEMBFJGiZhs8SsxnxLE1oveAw3NRmvyNKeYNnHdXr2dcEOelKUTUwW20mluaS+1XxrnMUHEn+u1F2dX80zaUOGX43S0exrNxh5u/Lf511r2z6mO3W8WO9GzsXrR0x8mawbHGufYqB9UvlVHrUYyxHTi+1XpeeFBLNs2S/VOt/S+bJ/gtWUDWrH481sJ2DPitiR8i3divgy3LhGgSYIRD6CKEl7O86Ric9zajzq/X2wg7HmlDqW9kkPXObAL/psWrbYjqN/l/bpeuR2KV3j98/JW+exoB2p9luup85D10Ptt+YctbRrxwb/Veln42/Kfvq8ThTS5y1gNZRrjn1KdtZl0Uzt87foc2L7rdR9qKMuX+V8ZccXWf88lZ99fH2+4hsx/Rn91VB/2w6StmxPShSSCCHZEimk1u4piSJK1NDihf8cHoMy1hQyI3WydOaKQkH4KkT5JOUqRSlN1a9wfHW+qt7y+FhSXnXc799GFHoZ1sbJxQVptLO3poBR6SDMdYx27vfwhq+dS6Njxun87B97G9bZ2TkX1hR64n4dhTRuc+1IFPr0erTodFUUWlJfk2kXKZTbLRd3pLzx0bwxh2DjamRV4ZqZA0CrLw0DeOtEJhtMJZ84qDXc9KrBuTy5i5OZeHO2HRu/NoBfP+mbwg2Ln5glkQKevyp3PqkQDn5bY7Ek35heZcKj8s2ZTl1vHtd1rTCSX7W6bb18mlHts1kew//lvLy+wQZL7KvykLTtqIGyHy6x75iFnmxOT8LT6+ddO1XPyeMrOadlL3Ptzot9QrS5tU8x0P2V8ul4vZHnIAD0fZm6LvX3VORIj43bwlLfmLTBK3mcZpynFvTT8vn1orrog1SYMXiodjHPXl1avt4/hDXcDF563NmIsy9jZNYwHg31U36jy6WF1lxQePAye8ZWG5hrx1Ldp9KZkfdKVtGmhp8PNoy2H7Vxnb/uF2r2TXxpYb6qbC2ivW+nyVxj1fg7wz5JObXdZ/rG0H/m7b29z2m1deiPtF0XsprKzzy+Qb7Sn8b05/RX2kbTn09KFDq2SCEtDuxzTaFi9IwWJAqiiC5jy2cfORQeh5tYG2muKCRrBoXHr2Sd3sp2JExN1a9wfHW+ivHhRKGJR6mKnXKhwZsCRu3cbk2hX96lES8/e/HEiz3Jo1CFdLIy/vyuW5A5F0yks6ttp64VkSVNIxXWiuUObBbU12TaJgoFkai1ISRrOG21plCbzSJPNdgnk6RxOlPiURzU6hOnkLcaTEfCy+BfqmzJBH1ctliflmP+cQ25iconLen3Udmayp2KRzGN5flOsZ+q/5RtzOOqrunNZMooPdZg+8G+ZVutq+9yzpqjyaRa9m3y7cqwxvfnXTtVz/LxLetb9gVtE/vm17rpUQx0v6Z8OrZLI+/8PPU99ffWtrCOVdkGXdmnj6sF/82bpv3diKT268ubRRANtljNOdpyiolVLr8vXqd+FFA3uVWhwWRr+YjdT8a87eOlMtvtIrKIQkTNzqrNzBpvrfan81afV9p33bjQlWNIQ0f61uyrH92exUXVOxk3pjkfVhSS8mzrG/f6JSNmu6jlp9thQ1tY6Vdpu7fzM9vmBvlKmzbTT/ym5E/t+09KFJIIIdkeQ6RQIrTIG6k2fvvYIUWhUJ9eYCmuOfQ35+aKQs0RO0qEydn6hbxHYpGcXxCFVucr6f/NuUOLQksEFOk8kq0pYFidxLTok0e9JPlMdU69ADNeQNkqS7avcq0tCqWLTtui0Ir6mkzbRCEp72Sk0BTPgx2XCcHUuj3T580a1NRgOppkD3WPk80tI4XipNB4drx/Tl9u/IabFSlTU7n143Zx4rMm31lspaxqO3W9eVzVtRYVNaufUGWqXWeWp/HaNZx1meaWYat8uzJMtzdd1vTzvGun6lk6vm19szGhaOvYJ8R+w9qnGBREoXi9kbe6SQx9wMq2sJZVyQZi96njct6nd7furX+r46t7992zPErSvhkari3axODnI1f8WkW1R+2s6JaVnHVZm5mM6hX9ScadaD+D0ZGV2fRrVcbRmDbUX7WZWeJH5GXmPaSf/liyZExZblPlo4pFVwZV7zwKrC/7JvkOHFR+Bc4jUUj3YUM6qk7VfRP2UTy29w1v82V9zizmqg5L/Mr3G1P5mcc3yFf6LDP9ql1b7R/POylR6JgjhbSAIYtPj96ypQSG5PzCK+DlnIOLQg2iz1xR6F8F0UbqOLmdur50vLS/YItaOQ4nClmLE8dGKx1E89YUMIz0Gs5bJQoVFoFurYct7MRHxax0pLzmtWvqa17bJgpZax5ZZT+mfXEwUr+M5oORukkqTfxiOsbEOU9vIlzb84npTQlWhr+P8pNz4gSpNHnwv3C1iELhsSLzsUk16RsmmSvzVfzLE7eujl0UVGqDyDLdL35oH9f1qPhGkbUwX7BdXN+VnFVdbCalumyXb2cTxb5w4yC2G2/nXTtVT/v41vUtcc33x3xjP2TtUwz0DZWexFe4jkUAlZ71WKnym7E9YvkW9TlJXzin/ebs7O+xv4sC9rgO9rXF8xTnYn+lzom2XMM5LaPtt+k5pfLHa5377lX/yufwEgZrnbxjKHP0schS1VWxLtpDj8mVtjFmNpF30jZWslo8LigWOvLHt+Vncbw32fnyb5Rvx04xKHAOopC2x+w+R9d3wj579Q1djvi5pc+JbdDu81I/VEwXsprKzz6+Pl+ph51+ZCbnrdmelCgkEUKyPbpIoUxokFeX/+GP9huzRIAI0SyVV8BvLQqF9D5T6xFl5fblmhJAmsqUpSv51hZq/pesKZQvgD0l7lSOr8pX1WGKiee2zZpCXjl/Gl45X4+qmY50CZ2DKWBYHUn9sbUQ4eIfeyo8PhYEmMdP42syk4He52eLJr6Ma66VyBuzI+zrHtY4GpV7RX1Npnb9RJjS5ZP6VqOFZE0hU1Sw7LfPfXpg8wty6jfD+DeB6UcPygP07EFNTbTWv30svkXH/7pbXAhWT7T8eYr//a1/c1j6WNloAq0mUJ1wlL1do/RYxNp89fVh0dTx20+6dTti+XXZp2xTPJ7Ut1usVa8/cu9/BXyluBUmuV37aLWR93XDJ5WtfHp2fdV1S+yr+zXln+kC7P6ta/KWOb94b1betfmGMqT10Mx1X2N/nndt0fY9C/t4msfsdqQ5h8+tvmHd4Fj7VPlKopB/pCF5+1T/q7Z6tDS5SVzcFlRZFvqGbYM4JpSPy6vY+7ZrtaHmtyW22ii9ifaLPIe3NSmbx/bjH63KxKjFnCOP0D/U1llSZbHbUPQp+YGgurbYg5c5ljfxWamnKp8eF9K6p37a3udM5C1lkK0qiywArvOqjymqjAvGwVjfWOYm+y4ej1Kf7PJXdSiMl50olEVW9Yult7OSvGNdD+MbG/U5s8bf9azKfWjHsXh8lT+LjfSPoOU5dvTfeN2cfSclCp1KpJCIPbINokTl0acHEYV2zv3hM+e+NsSXEAU0tSh0L94kb177a7d4tV+TyGsHo7T/5pwINF/+JRXK/FpGX/6xu+4Laz2jiugTOE8cX5zvQ4lCfrHk/i1Vv716nggtfm2fX549CqLR78/S15+bjd8UMOwOI4gVfh2bW72eUJefe/zE/VZZU6i71i9I/cTl6xF9kvWI/JvJZOBX2zXXVkUhWXS6IGYtrq/JtF0U8nbyNvRMPWvNxK+h9Ks/tnvkfsveZGbaV3Hc73EZyK31D/p9xqMAb4eJd+W68Dx5NvHv63V/qwWnShqFydPARE0g/ISqPPHtblhqi0vHSaKUxws/fZtKJgBy3Nqmr6oP5Wyt6/D8vco38FKTyeEcK+/ulbkhz0J5h8mhF7GMtJLXU88pt7/pLfnsHBstra+/bk55xTfFvknZW3iLKLQu3+Z20JdXi1SLr52y/dTxzTjnIoLdfu2+5t69HZXT9zUttrPbjrT/oY1on5hTZ90W5lynfXJUt67MQ/ucPB6jXKRe9tbor3S9+3alr632sYV+R1/ffVbtR+c3h5fibPuIZWd7PBrGkyQ6q79ei4u6rPL50GUu2H7MOK2/2G1xv+HrOyPvXBCcPRYq+3b2aW/bPm9tU/053uRLm7KiwPRcelm+Szh7Gw5lXeJXM+yj/WUb39iqz2nhnfUfG7Jq7mN9e1iSr49YWzl/HnxE+qCJ7UmJQhIhJNtjjxQSUcjaihDUvN5s9pr2INxUFmrW6X6thA1fliCQ+OilXojx4tBw/mfOmaJMloZPZ3hMTpXDp/Xln1LBJ6+/dZ1/1M7na0UR+QidoXz9Z10nEd2GcwpRUHPz9eW28h7ykXIp22wWKSQNtxcIfk8yfeS8GDQSXsI1ffRQcr4UNN8+cb9IPmr7y6snQXAaoD/24kQnTIl444/lax6FY8+eOxE18jeQSRpWJ7Xs2k6EGcrZ13kcXdUtOl2McJpZX80g5D1ER+nyRLb6/LxsP98+db899gKQsk3PWwtFFrOH2mdFy3zzuHtDjVWmTQa18GaabH2Lx/6XbYnGaHl8bMav2L49+ElTFhX0TcjzRxdDm2UyrcQZdbPjb8xDFNXwS7s/v/9VPPtFfmC3NF/VhsVGI2HLv0ntWRr9VHqDyXDDW5g8DhOiIV+rrn19PTef7+3UpHqmjfq8Z9VXyrsB585m3QLBKev+DSpJRJ2Ihsv8asmNg/jU4munbD913LPejPO0b9h9zXJRqNx+szYkPjVsF7aFJaymbDB1XNb2MYTfcDMofV6pvxrq7P172kbik2Hh47Cm0Lshoi9pQ6GvGkc7xut9fvM52z4i/bjeTotCevHmUTRTwiUVDsZjQr2fXFzmgu31Tb71eZsbf/vHBCs/UxQK/ObbV/vHonEhsZuuQ3t0xtx8l/TPnqOu6+y28JC+sWmfM3P8XeJXBVbDHGjq+OBT8/15cdsf8tR9z/TnkxKFTjVSKBdF+F5/dO2U+WwuCi1s2OlgMd0RcD6MTtMH1C9FlV/8Dlq3RBTCrw7Knv4yu1HA//A/fAAfwAcW+YCKXB1+JDmSMWYsCmHjRTY+EnseS9lPShSSCCHZnnKk0CkLH5S9LGohCjEwHUvnfhnlQBS6DDvTr2BnfAAfwAfwgUP5wLIooUPZB1HoUH5wWfmclChEpFBZjECoOQ42iEKX1YEeagJAPpZfdWHDXTh6S6i/lcYe9hEpRLQKvz7iA/gAPoAPnKwP6PWE5HG6Y5qHIQrtYe5Ge3UnJQpJhJBsiRQ6DiEEQSraAVGIjvqYJg7nUpbxGj567QfnjiK0W4lBnVCVllEv/HsudqEe9Hf4AD6AD+ADp+0D/gemdLwejeFTL7I4sKCAKESb20ebOylRiEihKD4gxBwnC0QhOup9dNSXnmZRFKoscH1wZohCJ/ur8MF95cA3ENSPcQkfwAfwgZIPIArhGyXfuKz9JyUKSYSQbIkUOk5h5JIFK0Shy+pAGUixNz6AD+AD+AA+gA/gA/jAoXyASCF8bR++dlKiEJFCiEDHLjghCtFR76OjJk38Ch/AB/ABfAAfwAfwAXwAUQgf2Ec/cFKikEQIyfYhI4X+8x/nvADAPwy0D3i/WPvvGyX/MMAH8AF8AB/AB/ABfAAfwAfwAe0DXhTS3/mMf2zhA2vvXw95/c6KFPL7+IMABCAAAQhAAAIQgAAEIAABCEAAAhA4XwI7iRCS7flWtV6zf//73/UTzuzopdXXubeOfxikPtA16v/31rlD/p9ZV0J1IAABCEAAAhCAAAQgAIETJkCk0Akbj6K3EvBiyGv+YZD5wNsgBr197dwh/70AxR8EIAABCEAAAhCAAAQgAIFjIECkUG+FS4ucuaz6IgohilmiIKLQMQxClAECEIAABCAAAQhAAAIQeDgCRAo9HHtyPhgBRCFEIUShgzU3MoIABCAAAQhAAAIQgAAEToYAkUK9qS4rcsa5y6ovohCi0HpR6M875z5/uv5RMx4fO5nxkYJCAAIQgAAEIAABCEDg7AkQKXT2JqaC3eLCliig9t08cm636/6vn2drz6jz5qzLc/ckpnn1dJs05+R/0ufeujfXH51/Raj8f3v9zv20aZ3aHx/759POlF+9RBSiR4EABCAAAQhAAAIQgAAEzocAkUK9LS8rcoZIoWLkzNXOua1EIREwrnfOXZgo9P5aiTk3t50gdnc/CDwvrn+siGQ/uu+VGCSiULe9d++Fq7Gdl2+7KOSjhHZP1gtCfkFrIoXOZwClJhCAAAQgAAEIQAACEDh1AkQKnboFKX8DgRmPjyEKVcSa9oipn25ilM/3d/11H965b3ux51sRiqrCzr17/0GuVUJRRVCal2+bKFSNEnrp3Of+sbInzv2z8S1miEINTZZTIAABCEAAAhCAAAQgAIGDECBSqMdMpNBB/O2BMkEUKkZGGaLMJucOUUEf3ZtB2GkQhYbrnBvEJCnjcEylKcdka51TFKPaRKGv/JOFE1FCf++fFPzz8+loIkShB+oGyBYCEIAABCAAAQhAAAIQGBEgUmiEhB3nRwBRaBOhR4SXlu0gxOjHvWK0z0jw6dMcHv+6stYPunVvrvrH0krRQrPybRCFns9YS+ilc195ceiRc19VxCFEofPrYagRBCAAAQhAAAIQgAAETpUAkUK95YgUOlUXbil3JgrdqAWg/eLSV4+cu3vZPTZVfXzspXPXakHqYWHqp85JNIwlmOg1he6eOufzkGu9gmCuYdSrEeG8R+P0fZo6jWL+RpmvnnTpfehXTw7pPNnksbFBfBJxJhF3RNQpRfrIcedKaw7VRaPXzs3Kd1oUaokS8usE6f9/Pnfuz4/6R8qMhakRhVraLOdAAAIQgAAEIAABCEAAAocgQKTQISiTxwMTEFHoeSfIXGcizod+v18MuigK9SJNEFR6AckLQB9EdPHCUmHNHRGFgqCkBKhwveTdCzW5qBSEG0MUkvOqxwv1DW9Fe+TcjReF8rRfupurndvtZvxfPXUfpDzDto8KSkSh164TdXT0kGYWI4lKaw7FNYMm0mjKd0IU6k3e8kiYFoXk89+fdusN/Tl7jT2i0AN3B2QPAQhAAAIQgAAEIAABCAwEiBTqURApNPjEGX7oRSEv+NwoQWcQMLww8TJG8Iwid/pjo/1K0BChxYrYGaJ6KtE4IhwlZfKikyXcqHxrx4sCl6Tro41yUUilnZdl1vc+6id7zCuIOplgM0QXuS1EoTn51kWhECX0KI0CEsGneWs8UoYodIZdDFWCAAQgAAEIQAACEIDAiRIgUuhEDUex5xB461wQbSqijBc8gsBivJK+JvhoocQLO5ZwFEShKfGlD0vJo41qos9QZiPtljLf+EfhjGt1nQ76eQtRaI6oVRGFVkYJ5aKRvMHs86fO/R+vUfIHAQhAAAIQgAAEIAABCEDgCAgQKdQbgUihI/DGvRXhrXMlwSYXPazoGi+e+EfL8nPz7yXhqRQFlF9v5b1UFGopc4twlJdxr9+PRxSSKKHW18znItDwnUihvbVqEoYABCAAAQhAAAIQgAAE1hMgUmg9Q1I4egIrRaEQ6aMXdq59NiJvWkUhS7haKgq15GmmvdWaQnMiduTcDRaaniVaFSKFNooSYk2ho+8YKCAEIAABCEAAAhCAAAQungCRQr0LECl0zm1hpSjUEnVTEyNaBBp//ZaiUEuZjy5SSBaidu6Fue7QtGg0Gc2V2MkWhf7ev1Z+aZSQf/vY57x97Jw7FOoGAQhAAAIQgAAEIACBsyFApNDZmJKKlAmsXFPIjKiR6JaGrRd7JtfueYA1hZrK1VC/RGhZef7dvXuxc+H/+3x9pdqxRWUwRKGX/RvDni9YYPpl9yp6b+qvKtez0HS5pXIEAhCAAAQgAAEIQAACEDgsASKFet5ECh3W8Q6b29q3j/VRPFPrCsmaQvkbyIL44oWhykLX/hwr/SlBykcElQQna40iEU9Cui1i1UqRR/Kbse1eW++FoXv3Xlh+iOsNvcjeaDYvOkjXZywKLY0SCtftnGt5fT2i0GFbP7lBAAIQgAAEIAABCEAAAmUCRAqV2XDkbAj0opB73r12/vqpcyI2eLHiQ7/fizI1IeXaLzj9xLm77LX2/np/zIsz1ivvRfCRc/T1Q94TglH+VrPhuoooNNT3ebpIdhCvds7dTLzufoaQs1yY0SKNfFYCUB81JNFDQSjarFyZKNRHCfk3hA0LRb+e+OwfFds59/kT51ofN0MUOpuOhYpAAAIQgAAEIAABCEDg5AkQKdSbkEihk/flSgVEFOpFhxu/aIxaLPrqURR6vCgkx/LHl7wYceeFIy/EqPP895tMeAnnqnwkCihcr64NQpJxbSJ8vOxFJ3WdF6c+vHRuiPgpRBq50rVeDDtWUcjb6da9uf44PErmRaFvr390PyVcRERauk1FIYn2aRV3RDiaez6iUKWpcggCEIAABCAAAQhAAAIQOCgBIoUOipvMHoZAJgptKiwsFSSO4LqjFoUOwUeJQkuihKaiiArHEYUephcgVwhAAAIQgAAEIAABCEBgTIBIoZ4JkUJj5zifPYhC5uNdR/j2MbOcexPxoij0Tx80tXPu7wUhR6KCttgiCp1Pz0JNIAABCEAAAhCAAAQgcOoEiBQ6dQtS/gYCiEKm2NLy2vq9CTKHiASayiOKQluIPa1pIAo1NFlOgQAEIAABCEAAAhCAAAQOQoBIoR4zkUIH8bcHygRRKBWFXjpXe2vZWQtBWihCFHqgBkm2EIAABCAAAQhAAAIQgMCRECBS6EgMQTH2SeCSRaHn6aLYskB2/ga2ixGCEIX22dJIGwIQgAAEIAABCEAAAhA4LQJECvX2IlLotBx3XmkvWRTSIgif04gpIoXmtSPOhgAEIAABCEAAAhCAAATOjQCRQudmUepjEEAUSsUQxKGOB6KQ0VjYBQEIQAACEIAABCAAAQhcEAEihXpjEyl07l7vhSH+YaB9oPN5v/DzIf/PvaVRPwhAAAIQgAAEIAABCEDgdAgQKXQ6tqKkEIAABCAAAQhAAAIQgAAEIAABCEBgMwJECm2GkoQgAAEIQAACEIAABCAAAQhAAAIQgMDpEPj/w6ru8Yfv2i8AAAAASUVORK5CYII=;imageBorder=default;" vertex="1" parent="1">
          <mxGeometry x="20" y="70" width="342.93" height="109.37" as="geometry" />
        </mxCell>
        <mxCell id="HG4EHklCZ0Gkf6-ZcI-4-2" value="server.xml" style="text;html=1;strokeColor=none;fillColor=none;align=center;verticalAlign=middle;whiteSpace=wrap;rounded=0;" vertex="1" parent="1">
          <mxGeometry x="20" y="40" width="60" height="30" as="geometry" />
        </mxCell>
        <mxCell id="HG4EHklCZ0Gkf6-ZcI-4-3" value="ServerLifecycleListener" style="rounded=0;whiteSpace=wrap;html=1;verticalAlign=top;" vertex="1" parent="1">
          <mxGeometry x="169.62" y="240" width="170" height="270" as="geometry" />
        </mxCell>
        <mxCell id="HG4EHklCZ0Gkf6-ZcI-4-4" value="" style="endArrow=classic;html=1;rounded=0;entryX=0;entryY=0.5;entryDx=0;entryDy=0;" edge="1" parent="1" target="HG4EHklCZ0Gkf6-ZcI-4-3">
          <mxGeometry width="50" height="50" relative="1" as="geometry">
            <mxPoint x="60" y="375" as="sourcePoint" />
            <mxPoint x="330" y="210" as="targetPoint" />
          </mxGeometry>
        </mxCell>
        <mxCell id="HG4EHklCZ0Gkf6-ZcI-4-5" value="START_EVENT" style="edgeLabel;html=1;align=center;verticalAlign=middle;resizable=0;points=[];" vertex="1" connectable="0" parent="HG4EHklCZ0Gkf6-ZcI-4-4">
          <mxGeometry x="-0.2431" y="3" relative="1" as="geometry">
            <mxPoint x="9" y="-7" as="offset" />
          </mxGeometry>
        </mxCell>
        <mxCell id="HG4EHklCZ0Gkf6-ZcI-4-10" style="edgeStyle=orthogonalEdgeStyle;rounded=0;orthogonalLoop=1;jettySize=auto;html=1;exitX=0.5;exitY=1;exitDx=0;exitDy=0;entryX=0.5;entryY=0;entryDx=0;entryDy=0;" edge="1" parent="1" source="HG4EHklCZ0Gkf6-ZcI-4-6" target="HG4EHklCZ0Gkf6-ZcI-4-7">
          <mxGeometry relative="1" as="geometry" />
        </mxCell>
        <mxCell id="HG4EHklCZ0Gkf6-ZcI-4-6" value="createMBeans()" style="text;html=1;strokeColor=default;fillColor=none;align=center;verticalAlign=middle;whiteSpace=wrap;rounded=0;labelBorderColor=none;" vertex="1" parent="1">
          <mxGeometry x="210.35" y="280" width="88.53" height="20" as="geometry" />
        </mxCell>
        <mxCell id="HG4EHklCZ0Gkf6-ZcI-4-12" style="edgeStyle=orthogonalEdgeStyle;rounded=0;orthogonalLoop=1;jettySize=auto;html=1;exitX=0.5;exitY=1;exitDx=0;exitDy=0;entryX=0.5;entryY=0;entryDx=0;entryDy=0;" edge="1" parent="1" source="HG4EHklCZ0Gkf6-ZcI-4-7" target="HG4EHklCZ0Gkf6-ZcI-4-11">
          <mxGeometry relative="1" as="geometry" />
        </mxCell>
        <mxCell id="HG4EHklCZ0Gkf6-ZcI-4-7" value="createMBeans(server)" style="text;html=1;strokeColor=default;fillColor=none;align=center;verticalAlign=middle;whiteSpace=wrap;rounded=0;labelBorderColor=none;" vertex="1" parent="1">
          <mxGeometry x="191.93" y="320" width="125.38" height="20" as="geometry" />
        </mxCell>
        <mxCell id="HG4EHklCZ0Gkf6-ZcI-4-15" style="edgeStyle=orthogonalEdgeStyle;rounded=0;orthogonalLoop=1;jettySize=auto;html=1;exitX=0.5;exitY=1;exitDx=0;exitDy=0;entryX=0.5;entryY=0;entryDx=0;entryDy=0;" edge="1" parent="1" source="HG4EHklCZ0Gkf6-ZcI-4-11" target="HG4EHklCZ0Gkf6-ZcI-4-13">
          <mxGeometry relative="1" as="geometry" />
        </mxCell>
        <mxCell id="HG4EHklCZ0Gkf6-ZcI-4-11" value="createMBeans(services)" style="text;html=1;strokeColor=default;fillColor=none;align=center;verticalAlign=middle;whiteSpace=wrap;rounded=0;labelBorderColor=none;" vertex="1" parent="1">
          <mxGeometry x="191.93" y="360" width="128.07" height="20" as="geometry" />
        </mxCell>
        <mxCell id="HG4EHklCZ0Gkf6-ZcI-4-16" style="edgeStyle=orthogonalEdgeStyle;rounded=0;orthogonalLoop=1;jettySize=auto;html=1;exitX=0.5;exitY=1;exitDx=0;exitDy=0;entryX=0.5;entryY=0;entryDx=0;entryDy=0;" edge="1" parent="1" source="HG4EHklCZ0Gkf6-ZcI-4-13" target="HG4EHklCZ0Gkf6-ZcI-4-14">
          <mxGeometry relative="1" as="geometry" />
        </mxCell>
        <mxCell id="HG4EHklCZ0Gkf6-ZcI-4-13" value="createMBeans(connectors)" style="text;html=1;strokeColor=default;fillColor=none;align=center;verticalAlign=middle;whiteSpace=wrap;rounded=0;labelBorderColor=none;" vertex="1" parent="1">
          <mxGeometry x="181.93" y="400" width="148.07" height="20" as="geometry" />
        </mxCell>
        <mxCell id="HG4EHklCZ0Gkf6-ZcI-4-17" style="edgeStyle=orthogonalEdgeStyle;rounded=0;orthogonalLoop=1;jettySize=auto;html=1;exitX=0.5;exitY=1;exitDx=0;exitDy=0;" edge="1" parent="1" source="HG4EHklCZ0Gkf6-ZcI-4-14">
          <mxGeometry relative="1" as="geometry">
            <mxPoint x="257" y="490" as="targetPoint" />
          </mxGeometry>
        </mxCell>
        <mxCell id="HG4EHklCZ0Gkf6-ZcI-4-14" value="createMBeans(engine)" style="text;html=1;strokeColor=default;fillColor=none;align=center;verticalAlign=middle;whiteSpace=wrap;rounded=0;labelBorderColor=none;" vertex="1" parent="1">
          <mxGeometry x="183" y="443.5" width="148.07" height="20" as="geometry" />
        </mxCell>
        <mxCell id="HG4EHklCZ0Gkf6-ZcI-4-18" value="..." style="text;html=1;strokeColor=none;fillColor=none;align=center;verticalAlign=middle;whiteSpace=wrap;rounded=0;" vertex="1" parent="1">
          <mxGeometry x="227.03" y="480" width="60" height="30" as="geometry" />
        </mxCell>
        <mxCell id="HG4EHklCZ0Gkf6-ZcI-4-21" style="edgeStyle=orthogonalEdgeStyle;rounded=0;orthogonalLoop=1;jettySize=auto;html=1;exitX=0.5;exitY=1;exitDx=0;exitDy=0;" edge="1" parent="1" source="HG4EHklCZ0Gkf6-ZcI-4-20" target="HG4EHklCZ0Gkf6-ZcI-4-3">
          <mxGeometry relative="1" as="geometry" />
        </mxCell>
        <mxCell id="HG4EHklCZ0Gkf6-ZcI-4-20" value="" style="rounded=0;whiteSpace=wrap;html=1;fillColor=none;" vertex="1" parent="1">
          <mxGeometry x="242.93" y="160" width="107.07" height="10" as="geometry" />
        </mxCell>
      </root>
    </mxGraphModel>
  </diagram>
</mxfile>
